<?xml version="1.0" encoding="UTF-8"?><svg xmlns="http://www.w3.org/2000/svg" viewBox="0 0 66.06 62.63"><defs><style>.d{stroke-width:4px;}.d,.e{fill:none;stroke:#d38171;stroke-linecap:round;stroke-linejoin:round;}.e{stroke-width:5px;}</style></defs><g id="a"/><g id="b"><g id="c"><g><path class="d" d="M64.06,56.35c-1.89-4.59-3.78-9.18-5.67-13.78,1.44-3.47,2.25-7.27,2.25-11.26,0-16.19-13.12-29.31-29.31-29.31S2,15.12,2,31.31s13.12,29.31,29.31,29.31c6.88,0,13.19-2.39,18.19-6.35,4.85,.69,9.7,1.38,14.55,2.07Z"/><line class="e" x1="21.32" y1="23.09" x2="41.86" y2="23.09"/><line class="e" x1="26.84" y1="32.83" x2="48.22" y2="32.83"/><line class="e" x1="14.97" y1="32.83" x2="19.05" y2="32.83"/><line class="e" x1="41.02" y1="42.58" x2="41.02" y2="42.58"/><line class="e" x1="21.32" y1="42.58" x2="33.03" y2="42.58"/></g></g></g></svg>