<?xml version="1.0" ?><svg height="60px" version="1.1" viewBox="0 0 60 60" width="60px" xmlns="http://www.w3.org/2000/svg" xmlns:xlink="http://www.w3.org/1999/xlink"><title/><desc/><defs/><g fill="none" fill-rule="evenodd" id="Page-1" stroke="none" stroke-width="1"><g fill-rule="nonzero" id="049---Crab"><g id="Icons" transform="translate(1.000000, 0.000000)"><path d="M47.745,33.85 C49.0750801,33.1729503 50.1695671,32.109834 50.885,30.8 C52.325,28.1 51.865,24.8 51.435,23.02 L55.085,21.24 C55.695,23.3 56.745,28.31 54.425,32.66 C52.9748071,35.3040771 50.57752,37.3012209 47.715,38.25 L47.705,38.25 L47.745,33.85 Z" fill="#F96A59" id="Shape"/><path d="M45.885,44.33 C47.6028336,45.0645008 49.4570702,45.4258042 51.325,45.39 C52.6974469,45.3911652 54.0657968,45.2402443 55.405,44.94 C56.4589338,44.6572386 57.0916865,43.5818678 56.8270302,42.5232425 C56.5623739,41.4646172 55.4980058,40.8135265 54.435,41.06 C54.345,41.08 50.015,42.1 47.225,40.5 L45.885,44.33 Z" fill="#F96A59" id="Shape"/><path d="M42.4,50.5 C45.1388019,51.777562 47.509233,53.7282651 49.29,56.17 C49.6706271,56.6898997 50.2756642,56.9979861 50.92,57 C51.3377312,57.0030378 51.7450331,56.8696113 52.08,56.62 C52.5120035,56.3144654 52.8044591,55.8493889 52.8926646,55.3276627 C52.9808701,54.8059366 52.8575546,54.2705678 52.55,53.84 C50.4450031,50.996787 47.7102463,48.6796026 44.56,47.07 L42.4,50.5 Z" fill="#F96A59" id="Shape"/><path d="M37.7,55.56 C38.2443562,56.2496558 38.7105396,56.9975616 39.09,57.79 C39.2949374,58.2792201 39.6883115,58.6652572 40.1813029,58.8609484 C40.6742943,59.0566397 41.2253328,59.0454839 41.71,58.83 C42.7195618,58.3926728 43.1881239,57.2234989 42.76,56.21 C42.1864153,54.9762758 41.4534985,53.8231084 40.58,52.78 L37.7,55.56 Z" fill="#F96A59" id="Shape"/><path d="M43.205,18.836 C46.786,23.419 51.024,24.42 54.913,21.382 C58.802,18.344 59.05,12.166 55.469,7.582 C50.364,1.049 45.331,-0.131 41.541,1.913 C41.2177517,2.10459483 40.994472,2.42798528 40.929861,2.79815211 C40.8652501,3.16831894 40.9657722,3.54822751 41.205,3.838 L43.566,6.86 C43.566,6.86 38.342,12.612 43.205,18.836 Z" fill="#FFACAD" id="Shape"/><path d="M10.255,33.85 C8.92491994,33.1729503 7.83043289,32.109834 7.115,30.8 C5.675,28.1 6.135,24.8 6.565,23.02 L2.915,21.24 C2.305,23.3 1.255,28.31 3.575,32.66 C5.02519286,35.3040771 7.42247996,37.3012209 10.285,38.25 L10.295,38.25 L10.255,33.85 Z" fill="#F96A59" id="Shape"/><path d="M12.115,44.33 C10.3971664,45.0645008 8.54292981,45.4258042 6.675,45.39 C5.30255314,45.3911652 3.93420317,45.2402443 2.595,44.94 C1.54106618,44.6572386 0.908313484,43.5818678 1.17296981,42.5232425 C1.43762613,41.4646172 2.50199422,40.8135265 3.565,41.06 C3.655,41.08 7.985,42.1 10.775,40.5 L12.115,44.33 Z" fill="#F96A59" id="Shape"/><path d="M15.605,50.5 C12.8661981,51.777562 10.495767,53.7282651 8.715,56.17 C8.33437293,56.6898997 7.72933582,56.9979861 7.085,57 C6.66726875,57.0030378 6.25996687,56.8696113 5.925,56.62 C5.4929965,56.3144654 5.20054091,55.8493889 5.11233541,55.3276627 C5.02412991,54.8059366 5.14744545,54.2705678 5.455,53.84 C7.55999693,50.996787 10.2947537,48.6796026 13.445,47.07 L15.605,50.5 Z" fill="#F96A59" id="Shape"/><path d="M20.305,55.56 C19.7606438,56.2496558 19.2944604,56.9975616 18.915,57.79 C18.7100626,58.2792201 18.3166885,58.6652572 17.8236971,58.8609484 C17.3307057,59.0566397 16.7796672,59.0454839 16.295,58.83 C15.2854382,58.3926728 14.8168761,57.2234989 15.245,56.21 C15.8185847,54.9762758 16.5515015,53.8231084 17.425,52.78 L20.305,55.56 Z" fill="#F96A59" id="Shape"/><path d="M48,35.829 C48,44.275 39.493,59 29,59 C18.507,59 10,44.275 10,35.829 C10,27.383 18.507,21 29,21 C39.493,21 48,27.383 48,35.829 Z" fill="#FFACAD" id="Shape"/><path d="M14.8,18.836 C11.219,23.419 6.981,24.42 3.092,21.382 C-0.797,18.344 -1.045,12.166 2.536,7.582 C7.636,1.048 12.674,-0.132 16.464,1.912 C16.7875721,2.10356763 17.0110892,2.4271588 17.0757131,2.79759211 C17.140337,3.16802542 17.0395927,3.54818555 16.8,3.838 L14.434,6.86 C14.434,6.86 19.658,12.612 14.8,18.836 Z" fill="#FFACAD" id="Shape"/><circle cx="23" cy="14.82" fill="#735EFF" id="Oval" r="2.82"/><circle cx="35" cy="14.82" fill="#735EFF" id="Oval" r="2.82"/></g><g fill="#000000" id="Layer_10"><path d="M56.863,7.275 C52.094,1.17 46.784,-0.944 42.3,1.473 C41.8602882,1.71315353 41.5489029,2.13504218 41.449,2.626 C41.3384462,3.16081934 41.4698447,3.71715867 41.808,4.146 L43.924,6.855 C42.887,8.21 39.417,13.525 43.808,19.144 C46.13,22.117 48.723,23.631 51.32,23.631 C51.6579419,23.628744 51.9952322,23.6009987 52.329,23.548 C52.9320952,25.8867995 52.7222858,28.3611401 51.734,30.565 C51.1397964,31.6467238 50.2615584,32.5457075 49.194,33.165 C47.872,27.014 42.053,22.226 34.381,20.888 C34.616,20.058 34.901,19.17 35.231,18.231 C35.4818425,18.2894536 35.7384404,18.3196416 35.996,18.321 C37.7843849,18.3433615 39.3099753,17.0314627 39.5557137,15.2599003 C39.8014521,13.488338 38.6905456,11.8107232 36.9635965,11.3454628 C35.2366474,10.8802024 33.4333252,11.7726897 32.7558413,13.4279347 C32.0783575,15.0831798 32.738425,16.9839206 34.296,17.863 C33.9373333,18.8823333 33.6323333,19.8406667 33.381,20.738 C31.1327161,20.4219982 28.8512839,20.4219982 26.603,20.738 C26.3516667,19.8413333 26.0466667,18.883 25.688,17.863 C27.2036084,16.9962134 27.8397888,15.1387505 27.1738386,13.5247808 C26.5078884,11.9108111 24.7469788,11.0424266 23.0611257,11.4966152 C21.3752727,11.9508039 20.2889303,13.5862715 20.5239062,15.3163508 C20.7588821,17.04643 22.2420773,18.3329083 23.988,18.321 C24.2455596,18.3196416 24.5021575,18.2894536 24.753,18.231 C25.083,19.17 25.368,20.058 25.603,20.888 C17.979,22.217 12.182,26.953 10.812,33.048 C9.82697708,32.4370304 9.0167358,31.5816608 8.46,30.565 C7.47416772,28.3708907 7.26261842,25.9070464 7.86,23.577 C8.5978771,23.6618979 9.34481041,23.6209839 10.069,23.456 C12.5202675,22.7651225 14.6533671,21.2400146 16.1,19.144 C20.488,13.526 17.02,8.21 15.983,6.855 L18.1,4.146 C18.4374242,3.71681155 18.5684112,3.16066547 18.458,2.626 C18.3580971,2.13504218 18.0467118,1.71315353 17.607,1.473 C13.123,-0.944 7.818,1.173 3.048,7.273 C-0.554,11.891 -0.409,18.085 3.266,21.4 C2.654,23.6 1.725,28.54 4.049,32.9 C5.50589785,35.5569379 7.88867993,37.5855948 10.744,38.6 C10.833,39.138 10.944,39.688 11.083,40.243 C8.514,41.448 4.764,40.61 4.604,40.573 C3.96508509,40.4080136 3.28663879,40.5075094 2.722,40.849 C2.14866236,41.1870789 1.73506166,41.7411885 1.574,42.387 C1.24069324,43.7308901 2.05723361,45.0911945 3.4,45.429 C4.77522756,45.7356692 6.17999441,45.890264 7.589,45.89 C9.34239918,45.9152675 11.0846313,45.6071361 12.723,44.982 C13.004,45.614 13.309,46.244 13.637,46.867 C10.6213909,48.5071483 8.00192751,50.7883411 5.963,53.55 C5.16771378,54.6691423 5.42651274,56.2205952 6.542,57.021 C6.96332974,57.3342947 7.47496032,57.5023819 8,57.5 C8.80484783,57.4953792 9.55999632,57.1100161 10.036,56.461 C11.6881719,54.2213133 13.841599,52.3993934 16.324,51.141 C16.755,51.718 17.205,52.28 17.674,52.819 C16.8932348,53.8048782 16.2307149,54.878872 15.7,56.019 C15.1690507,57.2838516 15.7514399,58.7407151 17.008,59.291 C17.60669,59.5571781 18.2866295,59.5744771 18.8980804,59.3390873 C19.5095313,59.1036974 20.0023475,58.6349235 20.268,58.036 L20.313,57.944 C20.6046858,57.3576417 20.9459263,56.7972713 21.333,56.269 C23.7906581,58.2652954 26.8352975,59.4003167 30,59.5 C33.1646655,59.3990269 36.2088895,58.2629756 38.666,56.266 C39.0617584,56.8078585 39.4103664,57.3826269 39.708,57.984 C39.9656423,58.5957591 40.4584954,59.0781953 41.0756181,59.322712 C41.6927407,59.5672288 42.3822726,59.553278 42.989,59.284 C44.2470173,58.7340517 44.8304367,57.2759485 44.299,56.01 C43.7673471,54.8719339 43.1048789,53.799702 42.325,52.815 C42.7916667,52.2756667 43.242,51.7163333 43.676,51.137 C46.1597596,52.3972763 48.3141833,54.2212249 49.967,56.463 C50.4425867,57.1106651 51.196489,57.4952183 52,57.5 C52.5217044,57.5028894 53.030351,57.3369654 53.45,57.027 C53.9930311,56.6386818 54.358195,56.0493044 54.4641364,55.390176 C54.5700778,54.7310476 54.4079955,54.0569261 54.014,53.518 C51.9788489,50.7701719 49.3675466,48.5005131 46.363,46.868 C46.691,46.244 46.9956667,45.6153333 47.277,44.982 C48.9149968,45.607223 50.6569186,45.9153595 52.41,45.89 C53.8228544,45.8901814 55.2314025,45.734235 56.61,45.425 C57.9467123,45.0837338 58.7561983,43.7262468 58.421,42.388 C58.0841782,41.0553879 56.734723,40.2446427 55.4,40.573 C55.235,40.611 51.486,41.45 48.915,40.246 C49.0416667,39.722 49.149,39.2053333 49.237,38.696 C52.1900276,37.6991103 54.6606419,35.6289625 56.159,32.896 C58.559,28.396 57.489,23.274 56.883,21.19 C60.336,17.83 60.393,11.793 56.863,7.275 Z M33.5,14.82 C33.5,13.4392881 34.6192881,12.32 36,12.32 C37.3807119,12.32 38.5,13.4392881 38.5,14.82 C38.5,16.2007119 37.3807119,17.32 36,17.32 C35.6917665,17.3187108 35.3865021,17.259693 35.1,17.146 L35.089,17.14 C35.082,17.14 35.076,17.14 35.07,17.14 C34.1218558,16.7600203 33.5002377,15.8414509 33.5,14.82 Z M21.5,14.82 C21.4979953,13.5611222 22.4323526,12.4971251 23.6809377,12.3364623 C24.9295227,12.1757995 26.1028044,12.9685943 26.4195626,14.1869709 C26.7363209,15.4053474 26.0977341,16.6691988 24.929,17.137 C24.923,17.137 24.917,17.137 24.91,17.137 L24.899,17.143 C24.6124979,17.256693 24.3072335,17.3157108 23.999,17.317 C22.6198493,17.3164493 21.5016549,16.1991498 21.5,14.82 Z M44.6,18.528 C42.0134094,15.3742302 41.997955,10.8373182 44.563,7.666 L47.415,11.317 C47.5095883,11.4385949 47.6549474,11.5097987 47.809,11.51 C47.9205688,11.5105527 48.0289445,11.4727801 48.116,11.403 C48.3323726,11.233067 48.3708038,10.9202547 48.202,10.703 L44.96,6.553 L42.6,3.53 C42.444038,3.33261595 42.3832777,3.07639776 42.434,2.83 C42.4716082,2.62754284 42.5982996,2.45274535 42.779,2.354 C43.795054,1.79681259 44.9351974,1.50481208 46.094,1.505 C49.311,1.505 52.805,3.705 56.077,7.891 C59.477,12.25 59.271,18.125 55.605,20.991 C51.966,23.829 48.058,22.955 44.6,18.528 Z M3.839,7.891 C7.112,3.7 10.605,1.505 13.822,1.505 C14.9808026,1.50481208 16.120946,1.79681259 17.137,2.354 C17.3177004,2.45274535 17.4443918,2.62754284 17.482,2.83 C17.5327223,3.07639776 17.471962,3.33261595 17.316,3.53 L14.955,6.553 L11.714,10.7 C11.5451962,10.9172547 11.5836274,11.230067 11.8,11.4 C11.8870555,11.4697801 11.9954312,11.5075527 12.107,11.507 C12.2610526,11.5067987 12.4064117,11.4355949 12.501,11.314 L15.353,7.663 C17.918045,10.8343182 17.9025906,15.3712302 15.316,18.525 C14.0112628,20.4342677 12.0836947,21.8308973 9.863,22.476 C7.88134328,22.8691358 5.82954708,22.3184916 4.311,20.986 C0.646,18.125 0.435,12.25 3.839,7.891 Z M4.932,32.425 C2.909,28.633 3.555,24.319 4.119,22.084 C4.95380187,22.6876126 5.89187426,23.1336036 6.887,23.4 C6.24655109,25.9516458 6.49341404,28.6452733 7.587,31.038 C8.29198152,32.3240789 9.34527295,33.3853419 10.626,34.1 C10.5445767,34.6734517 10.5024784,35.2518019 10.5,35.831 C10.5022593,36.3748722 10.5326332,36.918264 10.591,37.459 C8.17838247,36.487361 6.17809478,34.7079922 4.932,32.425 Z M7.59,44.89 C6.25905244,44.891307 4.93202364,44.7457598 3.633,44.456 C3.11353582,44.3239904 2.70395741,43.9248776 2.55854902,43.4090036 C2.41314062,42.8931296 2.55399323,42.3388679 2.92804903,41.9550036 C3.30210482,41.5711392 3.85253583,41.4159903 4.372,41.548 C4.814,41.648 8.533,42.448 11.345,41.229 C11.6239156,42.1906995 11.9533735,43.1370146 12.332,44.064 C10.8171553,44.6344052 9.20849021,44.9146156 7.59,44.89 Z M9.228,55.873 C8.7371577,56.5389179 7.80388916,56.6900186 7.128,56.213 C6.80348992,55.9803276 6.58514327,55.6278704 6.52132517,55.2336997 C6.45750707,54.8395291 6.55348526,54.4361812 6.788,54.113 C8.74718972,51.4919011 11.2456989,49.3214342 14.115,47.748 C14.615,48.625 15.149,49.486 15.728,50.317 C13.1673176,51.6510533 10.9443603,53.5511689 9.228,55.873 Z M19.414,57.5 L19.369,57.593 C19.2127482,57.9562144 18.9182725,58.2422424 18.5506652,58.3878592 C18.183058,58.5334759 17.7725925,58.5266895 17.41,58.369 C16.6535101,58.0398097 16.3016246,57.1641046 16.62,56.403 C17.089786,55.395926 17.6714485,54.444938 18.354,53.568 C19.0437978,54.3037915 19.7785398,54.9961189 20.554,55.641 C20.1202891,56.2260838 19.7388224,56.8481422 19.414,57.5 Z M13.5,44.17 C13.4969445,44.1537786 13.4929375,44.1377509 13.488,44.122 C13.482,44.108 13.47,44.1 13.463,44.087 C12.9539298,42.908403 12.528543,41.6953989 12.19,40.457 C12.1837355,40.4132468 12.1716275,40.3705322 12.154,40.33 C11.7464431,38.8638306 11.5280057,37.3515713 11.504,35.83 C11.504,28.897 17.559,23.271 25.882,21.855 C25.99,22.287 26.082,22.703 26.164,23.099 C26.2114514,23.3314654 26.4157414,23.4985738 26.653,23.499 C26.6865956,23.4992657 26.7201222,23.4959131 26.753,23.489 C26.8831014,23.463165 26.9976059,23.3866931 27.071312,23.2764152 C27.1450182,23.1661373 27.1718852,23.0310914 27.146,22.901 C27.07,22.521 26.98,22.123 26.878,21.711 C28.9530851,21.428338 31.0569149,21.428338 33.132,21.711 C33.032,22.123 32.94,22.521 32.864,22.901 C32.8381148,23.0310914 32.8649818,23.1661373 32.938688,23.2764152 C33.0123941,23.3866931 33.1268986,23.463165 33.257,23.489 C33.2898778,23.4959131 33.3234044,23.4992657 33.357,23.499 C33.5942586,23.4985738 33.7985486,23.3314654 33.846,23.099 C33.924,22.699 34.02,22.287 34.128,21.855 C42.445,23.27 48.5,28.9 48.5,35.829 C48.4759821,37.3450369 48.2589009,38.8518361 47.854,40.313 C47.8336453,40.3595357 47.819847,40.408671 47.813,40.459 C47.4751879,41.6956171 47.0508072,42.9069399 46.543,44.084 C46.535,44.098 46.521,44.107 46.515,44.122 C46.5097258,44.1394225 46.5053862,44.1571144 46.502,44.175 C43.388,51.368 37,58.5 30,58.5 C23,58.5 16.609,51.365 13.5,44.17 Z M43.379,56.405 C43.6978649,57.1672026 43.3449476,58.0441488 42.587,58.373 C41.8330922,58.6974828 40.9586689,58.3520923 40.63,57.6 L40.585,57.507 C40.2619942,56.8555206 39.8821911,56.2337812 39.45,55.649 C40.2257109,55.0040457 40.9604687,54.3113695 41.65,53.575 C42.330177,54.4508273 42.910125,55.4000769 43.379,56.405 Z M53.222,54.13 C53.6986148,54.8066747 53.5370643,55.7415197 52.861,56.219 C52.1866487,56.6818391 51.2674756,56.5320218 50.775,55.879 C49.0576079,53.5542859 46.8324842,51.6520206 44.269,50.317 C44.849,49.485 45.386,48.625 45.883,47.747 C48.7581712,49.3246049 51.2609496,51.5013639 53.222,54.13 Z M55.642,41.544 C56.4416915,41.3478655 57.2499936,41.8330253 57.453,42.631 C57.6545387,43.4339296 57.1697665,44.248883 56.368,44.455 C55.0684229,44.7456137 53.7406736,44.8915018 52.409,44.89 C50.7908282,44.9147046 49.1824742,44.6344894 47.668,44.064 C48.0461839,43.1368474 48.3756336,42.1905558 48.655,41.229 C51.468,42.447 55.186,41.651 55.642,41.544 Z M55.278,32.426 C53.9892098,34.7770594 51.9054555,36.5924568 49.4,37.547 C49.4642213,36.9765498 49.4976032,36.4030488 49.5,35.829 C49.5010687,35.2894195 49.4676673,34.7503218 49.4,34.215 C50.7637996,33.4944869 51.8853955,32.3885412 52.625,31.035 C53.7263191,28.6199306 53.9690708,25.900971 53.313,23.329 C54.3005922,23.0169769 55.2254213,22.5332358 56.045,21.9 C56.617,24.079 57.357,28.529 55.278,32.426 Z" id="Shape"/></g></g></g></svg>