<?xml version="1.0" encoding="iso-8859-1"?>
<!-- Generator: Adobe Illustrator 19.0.0, SVG Export Plug-In . SVG Version: 6.00 Build 0)  -->
<svg version="1.1" id="Layer_1" xmlns="http://www.w3.org/2000/svg" xmlns:xlink="http://www.w3.org/1999/xlink" x="0px" y="0px"
	 viewBox="0 0 511.999 511.999" style="enable-background:new 0 0 511.999 511.999;" xml:space="preserve">
<g>
	<g>
		<path d="M420.551,262.886c16.464-10.938,28.083-28.598,30.926-49.033c34.889-9.93,60.523-42.064,60.523-80.094
			c0-45.922-37.36-83.281-83.282-83.281c-6.076,0-12.196,0.678-18.189,2.015c-8.435,1.882-14.434,9.366-14.434,18.009v30.634H365.46
			c-8.643,0-16.127,5.999-18.009,14.434c-1.337,5.992-2.015,12.112-2.015,18.189c0,40.633,29.258,74.541,67.807,81.817
			c-3.989,10.949-13.513,19.258-25.17,21.534c-57.977-88.484-206.511-87.963-264.148,0c-11.657-2.276-21.18-10.584-25.17-21.534
			c38.55-7.276,67.807-41.185,67.807-81.817c0-6.078-0.678-12.197-2.015-18.189c-1.882-8.435-9.366-14.434-18.009-14.434h-30.634
			V70.5c0-8.643-5.999-16.127-14.434-18.009c-5.993-1.337-12.112-2.015-18.189-2.015C37.36,50.477,0,87.836,0,133.758
			c0,38.031,25.634,70.166,60.523,80.095c2.843,20.435,14.461,38.094,30.926,49.033c-25.787,8.318-48.546,22.408-65.966,41.164
			c-6.936,7.467-6.505,19.142,0.962,26.078c7.468,6.937,19.145,6.504,26.078-0.962c13.549-14.586,31.607-25.465,52.235-31.766
			c-0.03,1.062-0.046,2.126-0.046,3.191c0,6.65,0.576,13.218,1.705,19.662c-31.231,12.524-57.193,33.198-74.219,59.409
			c-5.55,8.546-3.123,19.975,5.424,25.525c8.546,5.552,19.974,3.122,25.525-5.424c12.597-19.394,31.966-34.871,55.458-44.613
			c2.377,4.404,5.039,8.697,7.995,12.855c-28.307,16.289-50.541,39.497-63.822,67.05c-4.425,9.18-0.57,20.209,8.611,24.633
			c9.18,4.425,20.21,0.568,24.633-8.611c11.055-22.936,31.521-42.683,57.028-55.36c57.364,45.67,147.382,46.589,205.901,0
			c25.507,12.677,45.973,32.424,57.028,55.36c4.424,9.178,15.451,13.036,24.633,8.611c9.18-4.425,13.036-15.454,8.611-24.633
			c-13.279-27.553-35.514-50.76-63.822-67.05c2.956-4.159,5.618-8.452,7.995-12.855c23.492,9.741,42.862,25.219,55.458,44.613
			c5.553,8.549,16.984,10.973,25.525,5.424c8.547-5.55,10.974-16.98,5.424-25.525c-17.025-26.212-42.988-46.885-74.219-59.409
			c1.129-6.445,1.705-13.012,1.705-19.662c0-1.067-0.016-2.129-0.046-3.191c20.628,6.301,38.687,17.179,52.234,31.766
			c6.937,7.467,18.611,7.897,26.078,0.962s7.897-18.611,0.962-26.078C469.097,285.296,446.338,271.204,420.551,262.886z"/>
	</g>
</g>
<g>
</g>
<g>
</g>
<g>
</g>
<g>
</g>
<g>
</g>
<g>
</g>
<g>
</g>
<g>
</g>
<g>
</g>
<g>
</g>
<g>
</g>
<g>
</g>
<g>
</g>
<g>
</g>
<g>
</g>
</svg>
