<?xml version="1.0" encoding="iso-8859-1"?>
<!-- Generator: Adobe Illustrator 19.0.0, SVG Export Plug-In . SVG Version: 6.00 Build 0)  -->
<svg version="1.1" id="Layer_1" xmlns="http://www.w3.org/2000/svg" xmlns:xlink="http://www.w3.org/1999/xlink" x="0px" y="0px"
	 viewBox="0 0 512.001 512.001" style="enable-background:new 0 0 512.001 512.001;" xml:space="preserve">
<path style="fill:#d4966f;" d="M379.204,266.236c-1.879,0-3.78-0.07-5.648-0.206c-11.05-0.806-19.356-10.418-18.55-21.468
	c0.807-11.05,10.416-19.352,21.469-18.55c0.9,0.066,1.819,0.099,2.729,0.099c20.173,0,36.585-16.412,36.585-36.585
	c0-1.337-0.072-2.687-0.215-4.01c-1.193-11.016,6.77-20.913,17.786-22.106c11.014-1.19,20.913,6.77,22.105,17.786
	c0.298,2.751,0.449,5.553,0.449,8.329C455.914,231.824,421.502,266.236,379.204,266.236z"/>
<path style="fill:#d4966f;" d="M415.008,97.65v-53.37c4.962-1.106,10.113-1.709,15.408-1.709c38.929,0,70.489,31.558,70.489,70.487
	s-31.558,70.487-70.489,70.487c-38.929,0-70.487-31.558-70.487-70.487c0-5.295,0.603-10.446,1.709-15.408L415.008,97.65
	L415.008,97.65z"/>
<g>
	<path style="fill:#d4966f;" d="M491.941,331.928c-5.383,0-10.752-2.153-14.704-6.409c-20.311-21.868-49.921-36.124-83.371-40.14
		c-11.001-1.321-18.849-11.31-17.528-22.311c1.321-11.001,11.302-18.851,22.311-17.528c42.871,5.148,81.222,23.853,107.989,52.672
		c7.541,8.119,7.073,20.813-1.046,28.354C501.726,330.153,496.828,331.928,491.941,331.928z"/>
	<path style="fill:#d4966f;" d="M482.529,411.418c-6.567,0-13-3.219-16.844-9.136c-16.534-25.457-43.78-44.737-76.72-54.289
		c-10.642-3.086-16.767-14.215-13.68-24.856c3.086-10.642,14.212-16.766,24.856-13.681c42.186,12.234,77.414,37.438,99.195,70.969
		c6.035,9.292,3.396,21.718-5.897,27.753C490.063,410.369,486.274,411.418,482.529,411.418z"/>
	<path style="fill:#d4966f;" d="M434.652,469.431c-7.463,0-14.63-4.182-18.087-11.357c-13.569-28.15-40.168-51.891-72.98-65.132
		c-10.275-4.146-15.242-15.837-11.096-26.112c4.148-10.276,15.839-15.243,26.113-11.096c42.575,17.181,75.996,47.339,94.109,84.92
		c4.811,9.982,0.619,21.972-9.362,26.783C440.54,468.79,437.573,469.431,434.652,469.431z"/>
</g>
<g>
	<path style="fill:#d4966f;" d="M132.796,266.236c-42.298,0-76.709-34.412-76.709-76.709c0-2.775,0.151-5.577,0.449-8.329
		c1.193-11.016,11.097-18.972,22.105-17.786c11.016,1.193,18.979,11.091,17.786,22.106c-0.143,1.323-0.215,2.672-0.215,4.01
		c0,20.172,16.412,36.585,36.586,36.585c0.91,0,1.828-0.033,2.729-0.099c11.062-0.804,20.663,7.499,21.469,18.55
		c0.805,11.05-7.499,20.663-18.55,21.468C136.575,266.167,134.675,266.236,132.796,266.236z"/>
	<path style="fill:#d4966f;" d="M20.058,331.928c-4.887,0-9.785-1.775-13.649-5.363c-8.119-7.541-8.587-20.235-1.046-28.354
		c26.769-28.819,65.12-47.524,107.989-52.672c11.009-1.317,20.989,6.527,22.311,17.528c1.321,11.001-6.527,20.991-17.528,22.311
		c-33.451,4.017-63.06,18.272-83.373,40.141C30.81,329.775,25.44,331.928,20.058,331.928z"/>
	<path style="fill:#d4966f;" d="M29.47,411.418c-3.746,0-7.534-1.047-10.909-3.239c-9.293-6.035-11.932-18.461-5.897-27.753
		c21.78-33.531,57.008-58.736,99.195-70.969c10.644-3.087,21.77,3.039,24.856,13.681c3.087,10.641-3.039,21.77-13.681,24.856
		c-32.938,9.552-60.186,28.832-76.72,54.289C42.472,408.197,36.036,411.418,29.47,411.418z"/>
	<path style="fill:#d4966f;" d="M77.347,469.431c-2.922,0-5.888-0.641-8.696-1.994c-9.982-4.811-14.173-16.803-9.362-26.783
		c18.112-37.58,51.534-67.739,94.109-84.92c10.277-4.146,21.967,0.821,26.113,11.096c4.146,10.275-0.821,21.966-11.096,26.112
		c-32.813,13.241-59.412,36.982-72.98,65.132C91.978,465.247,84.81,469.431,77.347,469.431z"/>
</g>
<g>
	<ellipse style="fill:#d4966f;" cx="255.996" cy="294.45" rx="144.436" ry="120.976"/>
	<path style="fill:#d4966f;" d="M96.991,97.65v-53.37c-4.962-1.106-10.113-1.709-15.408-1.709
		c-38.929,0-70.487,31.558-70.487,70.487s31.558,70.487,70.487,70.487s70.487-31.558,70.487-70.487
		c0-5.295-0.602-10.446-1.709-15.408L96.991,97.65L96.991,97.65z"/>
</g>
<path style="fill:#d4966f;" d="M400.43,294.451c0-66.813-64.664-120.975-144.431-120.976v241.952
	C335.767,415.428,400.43,361.265,400.43,294.451z"/>
<g>
</g>
<g>
</g>
<g>
</g>
<g>
</g>
<g>
</g>
<g>
</g>
<g>
</g>
<g>
</g>
<g>
</g>
<g>
</g>
<g>
</g>
<g>
</g>
<g>
</g>
<g>
</g>
<g>
</g>
</svg>
