<?xml version="1.0" encoding="iso-8859-1"?>
<svg version="1.1"
     id="Layer_1"
     xmlns="http://www.w3.org/2000/svg"
     x="0px" y="0px"
	 viewBox="0 0 512.001 512.001"
	 style="enable-background:new 0 0 512.001 512.001;"
     xml:space="preserve">
 <g transform="rotate(180 257.66 257.494)">
  <path style="fill:#d4966f;" d="m47.22648,471.25319c-30.01854,-15.82097 -43.13009,-45.35344 -36.57432,-81.91745c2.76033,-13.7115 25.53301,-42.18925 36.91936,-45.70502c4.83057,-1.75789 6.55577,-5.62523 6.55577,-16.17254c0,-7.7347 2.41529,-19.68831 5.52065,-27.07143c5.17561,-13.35993 24.15285,-35.86086 30.01854,-35.86086c1.7252,0 8.28098,-2.46104 14.83675,-5.62523c9.66114,-4.5705 11.0413,-6.67996 8.28098,-11.95362c-2.07024,-3.51577 -3.45041,-10.54731 -3.45041,-15.11781c0,-7.38312 -3.10537,-9.84416 -21.39253,-16.52412c-15.18179,-5.62523 -27.25822,-13.7115 -41.40489,-27.42301c-11.0413,-10.54731 -20.01236,-21.4462 -20.01236,-24.25882c0,-4.92208 12.07643,-18.63358 16.21691,-18.63358c1.7252,0 8.97106,5.97681 16.56196,13.00835c18.97724,17.22728 49.68587,31.99351 53.82636,25.31355c5.86569,-9.49258 3.10537,-15.82097 -8.97106,-21.79778c-6.55577,-3.16419 -12.07643,-7.38312 -12.07643,-9.49258c0,-1.75789 -1.38016,-3.51577 -3.45041,-3.51577c-6.21073,0 -40.71481,-31.99351 -50.03091,-46.75975c-5.86569,-9.141 -5.86569,-9.84416 0,-16.52412c10.00618,-11.25047 17.25204,-8.43785 40.36977,14.41466c21.73757,21.09462 59.34701,44.29871 62.79741,38.67348c1.03512,-1.40631 -8.28098,-11.95362 -20.70244,-22.85251c-21.39253,-19.33674 -42.78505,-50.27552 -42.78505,-62.22914c0,-7.7347 11.0413,-17.22728 20.3574,-17.22728c5.52065,0 9.3161,3.86735 14.49171,16.52412c7.5909,18.28201 34.84911,46.75975 52.44619,55.54917c11.0413,5.27366 13.11155,4.92208 42.09497,-3.51577c37.95448,-11.25047 62.10733,-11.25047 100.06181,0c28.98342,8.43785 31.05367,8.78943 42.09497,3.51577c17.59708,-8.78943 44.8553,-37.26717 52.44619,-55.54917c5.52065,-13.00835 8.62602,-16.52412 15.18179,-16.52412c8.97106,0 19.66732,9.84416 19.66732,17.93043c0,11.25047 -21.73757,42.54082 -42.78505,61.52598c-12.42147,10.89889 -21.73757,21.4462 -20.70244,22.85251c3.45041,5.62523 41.05985,-17.57885 62.79741,-38.67348c23.11773,-22.85251 30.36359,-25.66512 40.36977,-14.41466c5.86569,6.67996 5.86569,7.38312 0,16.52412c-9.3161,14.76624 -43.82017,46.75975 -50.03091,46.75975c-2.07024,0 -3.45041,1.75789 -3.45041,3.51577c0,2.10946 -5.52065,6.32839 -12.07643,9.49258c-12.07643,5.97681 -14.83675,12.3052 -8.97106,21.79778c4.14049,6.67996 34.84911,-8.08627 53.82636,-25.31355c7.5909,-7.03154 14.83675,-13.00835 16.21691,-13.00835c4.48553,0 16.56196,13.7115 16.56196,18.63358c0,2.81262 -8.97106,13.7115 -20.01236,24.25882c-14.14667,13.7115 -26.2231,21.79778 -41.40489,27.42301c-18.28716,6.67996 -21.39253,9.141 -21.39253,16.52412c0,4.5705 -1.38016,11.60204 -3.45041,15.11781c-2.76033,5.27366 -1.38016,7.38312 8.28098,11.95362c6.55577,3.16419 13.11155,5.62523 14.83675,5.62523c5.86569,0 24.84293,22.50093 30.01854,35.86086c3.10537,7.38312 5.52065,19.33674 5.52065,27.07143c0,10.54731 1.7252,14.41466 6.55577,16.17254c11.38634,3.51577 34.15903,31.99351 36.91936,45.70502c4.14049,23.20409 0,46.40817 -11.38634,60.82283c-13.11155,16.8757 -36.22928,28.82932 -55.20652,28.82932l-14.83675,0l0,-26.36828l0,-26.36828l-27.60326,0l-27.60326,0l0,-16.52412c0.34504,-29.88405 19.66732,-59.41652 45.54538,-68.55752c7.24586,-2.81262 9.66114,-5.62523 9.66114,-12.65677c0,-15.46939 -11.73139,-31.64193 -26.2231,-35.50928c-12.07643,-3.51577 -13.45659,-2.81262 -28.63838,10.89889c-59.34701,53.79129 -162.16915,53.79129 -221.51616,0c-15.18179,-13.7115 -16.56196,-14.41466 -28.63838,-10.89889c-14.49171,3.86735 -26.2231,20.03989 -26.2231,35.50928c0,7.03154 2.41529,9.84416 9.66114,12.65677c25.87806,9.141 45.20034,38.67348 45.54538,68.55752l0,16.52412l-27.60326,0l-27.60326,0l0,26.36828l0,26.36828l-14.83675,0c-8.62602,0 -21.04749,-3.51577 -30.01854,-7.7347zm24.15285,-41.48609l0,-24.61039l27.25822,0l26.91318,0l-1.7252,-9.141c-0.69008,-4.92208 -6.55577,-14.41466 -12.76651,-20.74305c-19.32228,-19.68831 -46.23546,-19.68831 -65.55774,0c-19.32228,20.03989 -19.32228,47.11132 0.69008,67.15122c6.21073,6.67996 14.83675,11.95362 18.28716,11.95362c6.21073,0 6.90081,-2.46104 6.90081,-24.61039zm397.83197,12.65677c20.01236,-20.03989 20.01236,-47.11132 0.69008,-67.15122c-19.32228,-19.68831 -46.23546,-19.68831 -65.55774,0c-6.21073,6.32839 -12.07643,15.82097 -12.76651,20.74305l-1.7252,9.141l26.91318,0l27.25822,0l0,24.61039c0,22.14935 0.69008,24.61039 6.90081,24.61039c3.45041,0 12.07643,-5.27366 18.28716,-11.95362zm-164.92947,-129.02878c43.13009,-16.52412 67.97303,-47.4629 70.04327,-87.89426c1.38016,-20.74305 0,-27.07143 -7.5909,-43.24398c-20.01236,-41.83767 -65.2127,-64.69018 -121.45434,-61.17441c-42.78505,2.46104 -79.70441,25.66512 -96.61141,61.17441c-17.94212,37.26717 -6.90081,83.67534 26.56814,111.09835c32.77887,27.07143 88.33043,35.50928 129.04524,20.03989z"/>
 </g>

</svg>