<?xml version="1.0" encoding="UTF-8"?><svg xmlns="http://www.w3.org/2000/svg" xmlns:xlink="http://www.w3.org/1999/xlink" viewBox="0 0 769.5 155.25"><defs><style>.h{fill:#fff;}.i{fill:#22262a;}.j{fill:#f4b8b0;}.k{stroke-width:.5px;}.k,.l,.m,.n{fill:none;}.k,.l,.n{stroke:#fff;}.k,.n{stroke-miterlimit:10;}.o{clip-path:url(#e);}.p{fill:#b26b62;}.l{stroke-linecap:round;stroke-linejoin:round;stroke-width:2px;}.q{clip-path:url(#d);}.r{opacity:.6;}.s{fill:#e8c7c5;}.n{stroke-width:.25px;}.t{fill:#d38171;}.u{filter:url(#f);}</style><clipPath id="d"><rect class="m" y=".11" width="769.5" height="154.67"/></clipPath><clipPath id="e"><rect class="m" x="290.8" y="52.42" width="180.65" height="102.37"/></clipPath><filter id="f" filterUnits="userSpaceOnUse"><feOffset dx="0" dy="7"/><feGaussianBlur result="g" stdDeviation="5.67"/><feFlood flood-color="#000" flood-opacity=".3"/><feComposite in2="g" operator="in"/><feComposite in="SourceGraphic"/></filter></defs><g id="a"/><g id="b"><g id="c"><g><rect class="s" x="190.03" y=".11" width="390.38" height="154.67"/><line class="n" x1="556.12" y1=".11" x2="477.52" y2="154.15"/><g><path class="i" d="M257.75,59.04v27.74l10.05-21.23c.91-1.98,2.32-3.56,4.22-4.74,1.9-1.18,3.95-1.77,6.15-1.77h6.35l-14.88,28.79,14.07,40.69h-12.06l-9.25-26.7-4.66,9.09v17.61h-10.94V59.04h10.94Z"/><path class="i" d="M308.49,59.12h22.43c3.16,0,5.7,.95,7.6,2.85,1.9,1.9,2.85,4.44,2.85,7.6v21.63c0,3.16-.95,5.7-2.85,7.6-1.9,1.9-4.44,2.85-7.6,2.85h-11.5v26.86h-10.94V59.12Zm10.94,10.86v20.75h7.96c.86,0,1.58-.29,2.17-.88,.59-.59,.88-1.31,.88-2.17v-14.63c0-.86-.3-1.58-.88-2.17-.59-.59-1.31-.88-2.17-.88h-7.96Z"/><path class="i" d="M375.63,67.73c.43-2.63,1.57-4.74,3.42-6.35,1.85-1.61,4.11-2.41,6.79-2.41h7.88l10.94,69.55h-11.34l-1.85-13.35h-12.14l-1.85,13.27h-11.34l9.49-60.71Zm5.23,36.59h9.09l-4.5-32.08-4.58,32.08Z"/><path class="i" d="M429.82,59.12h23.24c2.9,0,5.23,.88,7,2.65s2.65,4.1,2.65,7v12.22l-10.94-3.7v-4.34c0-.8-.28-1.5-.84-2.09-.56-.59-1.25-.88-2.05-.88h-8.12v18.33h11.5c3.16,0,5.69,.95,7.6,2.85,1.9,1.9,2.85,4.44,2.85,7.6v19.3c0,3.16-.95,5.7-2.85,7.6-1.9,1.9-4.44,2.85-7.6,2.85h-22.43V59.12Zm10.94,40.12v18.33h7.96c.86,0,1.58-.29,2.17-.88,.59-.59,.88-1.31,.88-2.17v-12.22c0-.86-.3-1.58-.88-2.17-.59-.59-1.31-.88-2.17-.88h-7.96Z"/><path class="i" d="M489.08,59.12h22.43c3.16,0,5.69,.95,7.6,2.85,1.9,1.9,2.85,4.44,2.85,7.6v21.63c0,3.16-.95,5.7-2.85,7.6s-4.44,2.85-7.6,2.85h-11.5v26.86h-10.94V59.12Zm10.94,10.86v20.75h7.96c.86,0,1.58-.29,2.17-.88s.88-1.31,.88-2.17v-14.63c0-.86-.3-1.58-.88-2.17-.59-.59-1.31-.88-2.17-.88h-7.96Z"/></g><rect class="s" x="113.45" y=".11" width="65.28" height="154.67"/><rect class="s" x="664.04" y=".11" width="105.45" height="154.67"/><rect class="s" y=".11" width="105.45" height="154.67"/><rect class="s" x="590.89" y=".11" width="65.28" height="154.67" transform="translate(1247.07 154.9) rotate(-180)"/><rect class="s" x="664.17" y=".11" width="30.98" height="154.67" transform="translate(1359.32 154.9) rotate(-180)"/><g><path class="p" d="M249.92,31.08h.74l3.01-3.99h3.69l-4.37,5.23,4.53,5.47h-3.61l-3.23-4.09h-.76v4.09h-3.03v-10.7h3.03v3.99Z"/><path class="p" d="M266.74,27.09h3.03v1.54c.74-1,1.76-1.74,3.33-1.74,2.49,0,4.87,1.96,4.87,5.53v.04c0,3.57-2.33,5.53-4.87,5.53-1.62,0-2.61-.74-3.33-1.6v4.59h-3.03v-13.89Zm8.2,5.37v-.04c0-1.78-1.2-2.95-2.61-2.95s-2.59,1.18-2.59,2.95v.04c0,1.78,1.18,2.95,2.59,2.95s2.61-1.16,2.61-2.95Z"/><path class="p" d="M295.02,27.09h3.15l-4.11,10.96c-.82,2.17-1.7,2.99-3.51,2.99-1.1,0-1.92-.28-2.69-.74l1.02-2.2c.4,.24,.9,.42,1.3,.42,.52,0,.8-.16,1.06-.7l-4.19-10.74h3.21l2.44,7.29,2.33-7.29Z"/><path class="p" d="M313.93,34.55c-.56,.16-1.36,.3-2.14,.3-2.73,0-4.35-1.26-4.35-3.99v-3.77h3.01v3.49c0,1.14,.6,1.56,1.8,1.56,.68,0,1.16-.12,1.68-.28v-4.77h3.03v10.7h-3.03v-3.23Z"/><path class="p" d="M326.94,32.5v-.04c0-3.05,2.18-5.57,5.29-5.57,3.57,0,5.21,2.77,5.21,5.81,0,.24-.02,.52-.04,.8h-7.44c.3,1.38,1.26,2.1,2.61,2.1,1.02,0,1.76-.32,2.59-1.1l1.74,1.54c-1,1.24-2.43,2-4.37,2-3.21,0-5.59-2.25-5.59-5.53Zm7.54-.9c-.18-1.36-.98-2.27-2.25-2.27s-2.08,.9-2.32,2.27h4.57Z"/><path class="p" d="M346.64,39.76c1.38-.14,2.06-.84,1.96-1.98h-1.24v-3.19h3.23v2.69c0,2.63-1.32,3.69-3.69,3.73l-.26-1.26Z"/><path class="p" d="M380.91,34.55c-.56,.16-1.36,.3-2.14,.3-2.73,0-4.35-1.26-4.35-3.99v-3.77h3.01v3.49c0,1.14,.6,1.56,1.8,1.56,.68,0,1.16-.12,1.68-.28v-4.77h3.03v10.7h-3.03v-3.23Z"/><path class="p" d="M393.92,32.5v-.04c0-3.05,2.18-5.57,5.29-5.57,3.57,0,5.21,2.77,5.21,5.81,0,.24-.02,.52-.04,.8h-7.45c.3,1.38,1.26,2.1,2.62,2.1,1.02,0,1.76-.32,2.59-1.1l1.74,1.54c-1,1.24-2.44,2-4.37,2-3.21,0-5.59-2.25-5.59-5.53Zm7.54-.9c-.18-1.36-.98-2.27-2.26-2.27s-2.08,.9-2.31,2.27h4.57Z"/><path class="p" d="M414.46,27.09h3.15l2.77,4.31,2.77-4.31h3.13v10.7h-2.93v-6.33l-2.97,4.51h-.06l-2.93-4.45v6.27h-2.93v-10.7Z"/><path class="p" d="M455.06,30.22l2.02-3.13h3.17l-3.61,5.23,3.77,5.47h-3.25l-2.16-3.33-2.16,3.33h-3.17l3.75-5.43-3.61-5.27h3.25l2,3.13Z"/><path class="p" d="M469.37,34.71v-.04c0-2.33,1.78-3.41,4.31-3.41,1.08,0,1.86,.18,2.62,.44v-.18c0-1.26-.78-1.96-2.3-1.96-1.16,0-1.98,.22-2.95,.58l-.76-2.31c1.18-.52,2.33-.86,4.15-.86,1.66,0,2.85,.44,3.61,1.2,.8,.8,1.16,1.98,1.16,3.41v6.21h-2.93v-1.16c-.74,.82-1.76,1.36-3.23,1.36-2.02,0-3.67-1.16-3.67-3.27Zm6.96-.7v-.54c-.52-.24-1.2-.4-1.94-.4-1.3,0-2.1,.52-2.1,1.48v.04c0,.82,.68,1.3,1.66,1.3,1.42,0,2.38-.78,2.38-1.88Z"/><path class="p" d="M490.93,36.55c-1.12-1.12-1.74-2.67-1.74-5.07,0-4.53,1.84-7.12,5.71-7.78l4.03-.68,.48,2.77-3.97,.62c-2.08,.34-3.13,1.26-3.41,2.69,.86-.68,2.13-1.18,3.59-1.18,3.15,0,4.89,1.92,4.89,4.73,0,3.07-2.3,5.37-5.73,5.37-1.7,0-3.03-.66-3.85-1.48Zm6.61-3.83c0-1.5-.94-2.58-2.57-2.58-1.8,0-2.77,1.24-2.77,2.71s1.04,2.63,2.63,2.63,2.71-1.18,2.71-2.77Z"/><path class="p" d="M510.51,27.09h3.03v1.54c.74-1,1.76-1.74,3.33-1.74,2.5,0,4.87,1.96,4.87,5.53v.04c0,3.57-2.33,5.53-4.87,5.53-1.62,0-2.61-.74-3.33-1.6v4.59h-3.03v-13.89Zm8.2,5.37v-.04c0-1.78-1.2-2.95-2.62-2.95s-2.59,1.18-2.59,2.95v.04c0,1.78,1.18,2.95,2.59,2.95s2.62-1.16,2.62-2.95Z"/></g><line class="k" x1="74.48" y1="37.79" x2="225.9" y2="155.05"/><line class="n" x1="134" y1=".11" x2="168.77" y2="155.05"/><line class="n" x1="74.48" y1="102.94" x2="336.41" y2="155.05"/><line class="k" x1="200.09" y1=".11" x2="278.68" y2="154.15"/><line class="k" x1="706.92" y1="37.79" x2="555.49" y2="155.05"/><line class="n" x1="526.47" y1="1.43" x2="678.31" y2="154.78"/><line class="n" x1="736.81" y1="102.94" x2="474.88" y2="155.05"/><g class="q"><g class="r"><path class="l" d="M207.39,157.76l2.32,4m-4.59-.54c-.11,.96,.07,1.96,.59,2.86,1.28,2.21,4.11,2.96,6.32,1.68s2.96-4.11,1.68-6.32c-.52-.9-1.3-1.56-2.19-1.93m6.19-.39c2.56,4.41,1.06,10.07-3.35,12.63s-10.07,1.06-12.63-3.35-1.06-10.07,3.35-12.63c4.41-2.56,10.07-1.06,12.63,3.35Z"/><path class="l" d="M18.52,24.75l.65,1.12c.26,.45,.39,.67,.4,.89,.01,.19-.04,.39-.15,.55-.12,.19-.34,.32-.79,.58l-2.24,1.3c-.45,.26-.67,.39-.89,.4-.19,.01-.39-.04-.55-.15-.19-.12-.32-.34-.58-.79l-.65-1.12m8.64,16.35l6.07-3.53c.9-.52,1.34-.78,1.58-1.15,.21-.33,.31-.71,.29-1.1-.02-.44-.28-.89-.8-1.79l-6.31-10.87c-.52-.9-.78-1.34-1.15-1.58-.33-.21-.71-.31-1.1-.29-.44,.02-.89,.28-1.79,.8l-6.07,3.53c-.9,.52-1.34,.78-1.58,1.15-.21,.33-.31,.71-.29,1.1,.02,.44,.28,.89,.8,1.79l6.31,10.87c.52,.9,.78,1.34,1.15,1.58,.33,.21,.71,.31,1.1,.29,.44-.02,.89-.28,1.79-.8Z"/><path class="l" d="M-10.18,46.75l2.32,4m-4.59-.54c-.11,.96,.07,1.96,.59,2.86,1.28,2.21,4.11,2.96,6.32,1.68s2.96-4.11,1.68-6.32c-.52-.9-1.3-1.56-2.19-1.93m6.19-.39c2.56,4.41,1.06,10.07-3.35,12.63-4.41,2.56-10.07,1.06-12.63-3.35s-1.06-10.07,3.35-12.63,10.07-1.06,12.63,3.35Z"/><path class="l" d="M41.26,20.1l1.86,3.2m2.2-4.49l.93,1.6m.35-7.68l5.57,9.59m-3.36-14.08l8.35,14.39m-1.51-10.88l1.86,3.2"/><path class="l" d="M679-9.44l.65,1.12c.26,.45,.39,.67,.4,.89,.01,.19-.04,.39-.15,.55-.12,.19-.34,.32-.79,.58l-2.24,1.3c-.45,.26-.67,.39-.89,.4-.19,.01-.39-.04-.55-.15-.19-.12-.32-.34-.58-.79l-.65-1.12m7.84,16.82l7.67-4.45c.9-.52,1.34-.78,1.58-1.15,.21-.33,.31-.71,.29-1.1-.02-.44-.28-.89-.8-1.79l-6.31-10.87c-.52-.9-.78-1.34-1.15-1.58-.33-.21-.71-.31-1.1-.29-.44,.02-.89,.28-1.79,.8l-7.67,4.45c-.9,.52-1.34,.78-1.58,1.15-.21,.33-.31,.71-.29,1.1,.02,.44,.28,.89,.8,1.79l6.31,10.87c.52,.9,.78,1.34,1.15,1.58,.33,.21,.71,.31,1.1,.29,.44-.02,.89-.28,1.79-.8Z"/><g><path class="l" d="M83.41-7.4c-.29-.29-.65-.51-1.04-.62-.4-.11-.81-.12-1.21-.01-1.43,.42-6.43,3.32-6.43,3.32,0,0-5,2.9-6.05,3.96-.29,.3-.49,.66-.59,1.06-.1,.4-.09,.82,.02,1.21,.51,1.4,1.14,2.75,1.9,4.04,.75,1.3,1.61,2.53,2.58,3.68,.29,.28,.65,.48,1.03,.58,.39,.1,.8,.1,1.19,0,1.44-.39,6.44-3.29,6.44-3.29,0,0,5-2.9,6.05-3.96,.29-.3,.49-.66,.59-1.06,.1-.4,.09-.82-.02-1.21-.5-1.39-1.13-2.73-1.88-4.01-.75-1.3-1.61-2.53-2.58-3.68Z"/><path class="l" d="M75.01-.1c-.22-.38-.33-.57-.31-.72,.02-.13,.09-.25,.2-.33,.13-.09,.35-.08,.79-.06l4.33,.2c.38,.02,.57,.03,.69,.11,.1,.08,.16,.19,.18,.31,.02,.14-.07,.31-.24,.65l-1.97,3.86c-.2,.39-.3,.59-.44,.66-.12,.06-.26,.06-.38,.01-.14-.06-.25-.25-.47-.63L75.01-.1Z"/></g><path class="l" d="M623.47,26.73c2.41-.2,4.84,.97,6.13,3.2m-5.69,9.72c-2.19-.04-4.31-1.19-5.5-3.22m13.59-7.89c2.56,4.41,1.06,10.07-3.35,12.63s-10.07,1.06-12.63-3.35-1.06-10.07,3.35-12.63c4.41-2.56,10.07-1.06,12.63,3.35Zm-5.59,3.25c.77,1.32,.32,3.02-1.01,3.79s-3.02,.32-3.79-1.01-.32-3.02,1.01-3.79,3.02-.32,3.79,1.01Z"/><path class="l" d="M653.6,25.61l6.39-3.71m-5.05-1.34l1.86,3.2m-6.01-.78l8.31-4.83c1.34-.78,2.01-1.17,2.38-1.73,.32-.49,.47-1.07,.44-1.66-.04-.66-.43-1.34-1.21-2.68l-2.04-3.52c-.78-1.34-1.17-2.01-1.73-2.38-.49-.32-1.07-.47-1.66-.44-.66,.04-1.34,.43-2.68,1.21l-8.31,4.83c-1.34,.78-2.01,1.17-2.38,1.73-.32,.49-.47,1.07-.44,1.66,.04,.66,.43,1.34,1.21,2.68l2.04,3.52c.78,1.34,1.17,2.01,1.73,2.38,.49,.32,1.07,.47,1.66,.44,.66-.04,1.34-.43,2.68-1.21Z"/><path class="l" d="M-7.87,1.79l1.86,3.2M-3.81,.5l.93,1.6m.35-7.68L3.03,4.01M-.33-10.07L8.02,4.32m-1.51-10.88l1.86,3.2"/><path class="l" d="M603.79,1.16c-.99-.26-1.57-1.27-1.31-2.26,.26-.99,1.27-1.57,2.26-1.31,.99,.26,1.57,1.27,1.31,2.26m-3.21,4.89c-2.96-.79-4.72-3.82-3.94-6.78,.79-2.96,3.82-4.72,6.78-3.94,2.96,.79,4.72,3.82,3.94,6.78m-7.73,7.51c-4.93-1.31-7.87-6.37-6.56-11.3,1.31-4.93,6.37-7.87,11.3-6.56,4.93,1.31,7.87,6.37,6.56,11.3"/><path class="l" d="M59.19,94.8l.65,1.12c.26,.45,.39,.67,.4,.89,.01,.19-.04,.39-.15,.55-.12,.19-.34,.32-.79,.58l-2.24,1.3c-.45,.26-.67,.39-.89,.4-.19,.01-.39-.04-.55-.15-.19-.12-.32-.34-.58-.79l-.65-1.12m8.64,16.35l6.07-3.53c.9-.52,1.34-.78,1.58-1.15,.21-.33,.31-.71,.29-1.1-.02-.44-.28-.89-.8-1.79l-6.31-10.87c-.52-.9-.78-1.34-1.15-1.58-.33-.21-.71-.31-1.1-.29-.44,.02-.89,.28-1.79,.8l-6.07,3.53c-.9,.52-1.34,.78-1.58,1.15-.21,.33-.31,.71-.29,1.1,.02,.44,.28,.89,.8,1.79l6.31,10.87c.52,.9,.78,1.34,1.15,1.58,.33,.21,.71,.31,1.1,.29,.44-.02,.89-.28,1.79-.8Z"/><path class="l" d="M30.49,116.8l2.32,4m-4.59-.54c-.11,.96,.07,1.96,.59,2.86,1.28,2.21,4.11,2.96,6.32,1.68s2.96-4.11,1.68-6.32c-.52-.9-1.3-1.56-2.19-1.93m6.19-.39c2.56,4.41,1.06,10.07-3.35,12.63s-10.07,1.06-12.63-3.35c-2.56-4.41-1.06-10.07,3.35-12.63s10.07-1.06,12.63,3.35Z"/><path class="l" d="M81.93,90.14l1.86,3.2m2.2-4.49l.93,1.6m.35-7.68l5.57,9.59m-3.36-14.08l8.35,14.39m-1.51-10.88l1.86,3.2"/><path class="l" d="M750.73,56.34c-.99-.26-1.57-1.27-1.31-2.26,.26-.99,1.27-1.57,2.26-1.31,.99,.26,1.57,1.27,1.31,2.26m-3.21,4.89c-2.96-.79-4.72-3.82-3.94-6.78,.79-2.96,3.82-4.72,6.78-3.94,2.96,.79,4.72,3.82,3.94,6.78m-7.73,7.51c-4.93-1.31-7.87-6.37-6.56-11.3,1.31-4.93,6.37-7.87,11.3-6.56,4.93,1.31,7.87,6.37,6.56,11.3"/><path class="l" d="M719.66,60.61l.65,1.12c.26,.45,.39,.67,.4,.89,.01,.19-.04,.39-.15,.55-.12,.19-.34,.32-.79,.58l-2.24,1.3c-.45,.26-.67,.39-.89,.4-.19,.01-.39-.04-.55-.15-.19-.12-.32-.34-.58-.79l-.65-1.12m7.84,16.82l7.67-4.45c.9-.52,1.34-.78,1.58-1.15,.21-.33,.31-.71,.29-1.1-.02-.44-.28-.89-.8-1.79l-6.31-10.87c-.52-.9-.78-1.34-1.15-1.58-.33-.21-.71-.31-1.1-.29-.44,.02-.89,.28-1.79,.8l-7.67,4.45c-.9,.52-1.34,.78-1.58,1.15-.21,.33-.31,.71-.29,1.1,.02,.44,.28,.89,.8,1.79l6.31,10.87c.52,.9,.78,1.34,1.15,1.58,.33,.21,.71,.31,1.1,.29,.44-.02,.89-.28,1.79-.8Z"/><g><path class="l" d="M124.08,62.65c-.29-.29-.65-.51-1.04-.62-.4-.11-.81-.12-1.21-.01-1.43,.42-6.43,3.32-6.43,3.32,0,0-5,2.9-6.05,3.96-.29,.3-.49,.66-.59,1.06-.1,.4-.09,.82,.02,1.21,.51,1.4,1.14,2.75,1.9,4.04,.75,1.3,1.61,2.53,2.58,3.68,.29,.28,.65,.48,1.03,.58,.39,.1,.8,.1,1.19,0,1.44-.39,6.44-3.29,6.44-3.29,0,0,5-2.9,6.05-3.96,.29-.3,.49-.66,.59-1.06,.1-.4,.09-.82-.02-1.21-.5-1.39-1.13-2.73-1.88-4.01-.75-1.3-1.61-2.53-2.58-3.68Z"/><path class="l" d="M115.68,69.95c-.22-.38-.33-.57-.31-.72,.02-.13,.09-.25,.2-.33,.13-.09,.35-.08,.79-.06l4.33,.2c.38,.02,.57,.03,.69,.11,.1,.08,.16,.19,.18,.31,.02,.14-.07,.31-.24,.65l-1.97,3.86c-.2,.39-.3,.59-.44,.66-.12,.06-.26,.06-.38,.01-.14-.06-.25-.25-.47-.63l-2.35-4.05Z"/></g><path class="l" d="M664.13,96.78c2.41-.2,4.84,.97,6.13,3.2m-5.69,9.72c-2.19-.04-4.31-1.19-5.5-3.22m13.59-7.89c2.56,4.41,1.06,10.07-3.35,12.63s-10.07,1.06-12.63-3.35-1.06-10.07,3.35-12.63,10.07-1.06,12.63,3.35Zm-5.59,3.25c.77,1.32,.32,3.02-1.01,3.79s-3.02,.32-3.79-1.01-.32-3.02,1.01-3.79,3.02-.32,3.79,1.01Z"/><path class="l" d="M157.26,54.96l-2.78-4.8c-2.31-3.97-7.4-5.32-11.37-3.02s-5.32,7.4-3.02,11.37l2.78,4.8m3.39,1.24c-1.1,.64-2.52,.27-3.16-.84l-.93-1.6c-.64-1.1-.27-2.52,.84-3.16s2.52-.27,3.16,.84l.93,1.6c.64,1.1,.27,2.52-.84,3.16Zm10.39-6.03c-1.1,.64-2.52,.27-3.16-.84l-.93-1.6c-.64-1.1-.27-2.52,.84-3.16s2.52-.27,3.16,.84l.93,1.6c.64,1.1,.27,2.52-.84,3.16Z"/><path class="l" d="M773.8,44.14l-4.08-7.03c-.52-.9-.78-1.34-.8-1.79-.02-.39,.08-.78,.29-1.1,.24-.37,.69-.63,1.58-1.15l9.27-5.38c.9-.52,1.34-.78,1.79-.8,.39-.02,.78,.08,1.1,.29,.37,.24,.63,.69,1.15,1.58l4.08,7.03-4.27,2.48c-.2,.11-.29,.17-.37,.25-.07,.07-.13,.14-.18,.23-.05,.1-.08,.21-.14,.42l-.02,.08c-.06,.22-.09,.33-.14,.42-.05,.09-.11,.16-.18,.23-.08,.08-.18,.13-.37,.25l-2.14,1.24c-.2,.11-.29,.17-.4,.2-.09,.03-.19,.04-.29,.04-.11,0-.22-.03-.44-.09l-.08-.02c-.22-.06-.33-.09-.44-.09-.1,0-.19,.01-.29,.04-.1,.03-.2,.09-.4,.2l-4.27,2.48Zm0,0c-.44,.26-.59,.82-.34,1.26l.15,.27c.29,.5,.43,.74,.6,.91,.47,.47,1.15,.65,1.79,.47,.23-.06,.48-.21,.98-.5l11.72-6.81c.5-.29,.74-.43,.91-.6,.47-.47,.65-1.15,.47-1.79-.06-.23-.21-.48-.5-.98-.14-.25-.22-.37-.3-.46-.23-.23-.57-.32-.89-.24-.12,.03-.24,.1-.49,.25l-.53,.31"/><path class="l" d="M694.27,95.66l6.39-3.71m-5.05-1.34l1.86,3.2m-6.01-.78l8.31-4.83c1.34-.78,2.01-1.17,2.38-1.73,.32-.49,.47-1.07,.44-1.66-.04-.66-.43-1.34-1.21-2.68l-2.04-3.52c-.78-1.34-1.17-2.01-1.73-2.38-.49-.32-1.07-.47-1.66-.44-.66,.04-1.34,.43-2.68,1.21l-8.31,4.83c-1.34,.78-2.01,1.17-2.38,1.73-.32,.49-.47,1.07-.44,1.66,.04,.66,.43,1.34,1.21,2.68l2.04,3.52c.78,1.34,1.17,2.01,1.73,2.38,.49,.32,1.07,.47,1.66,.44,.66-.04,1.34-.43,2.68-1.21Z"/><path class="l" d="M95.95,26.62l.65,1.12c.26,.45,.39,.67,.4,.89,.01,.19-.04,.39-.15,.55-.12,.19-.34,.32-.79,.58l-2.24,1.3c-.45,.26-.67,.39-.89,.4-.19,.01-.39-.04-.55-.15-.19-.12-.32-.34-.58-.79l-.65-1.12m8.64,16.35l6.07-3.53c.9-.52,1.34-.78,1.58-1.15,.21-.33,.31-.71,.29-1.1-.02-.44-.28-.89-.8-1.79l-6.31-10.87c-.52-.9-.78-1.34-1.15-1.58-.33-.21-.71-.31-1.1-.29-.44,.02-.89,.28-1.79,.8l-6.07,3.53c-.9,.52-1.34,.78-1.58,1.15-.21,.33-.31,.71-.29,1.1,.02,.44,.28,.89,.8,1.79l6.31,10.87c.52,.9,.78,1.34,1.15,1.58,.33,.21,.71,.31,1.1,.29,.44-.02,.89-.28,1.79-.8Z"/><path class="l" d="M756.49-2.25l2.32,4m-4.59-.54c-.11,.96,.07,1.96,.59,2.86,1.28,2.21,4.11,2.96,6.32,1.68s2.96-4.11,1.68-6.32c-.52-.9-1.3-1.56-2.19-1.93m6.19-.39c2.56,4.41,1.06,10.07-3.35,12.63s-10.07,1.06-12.63-3.35-1.06-10.07,3.35-12.63,10.07-1.06,12.63,3.35Z"/><path class="l" d="M32.8,71.84l1.86,3.2m2.2-4.49l.93,1.6m.35-7.68l5.57,9.59m-3.36-14.08l8.35,14.39m-1.51-10.88l1.86,3.2"/><path class="l" d="M644.45,71.21c-.99-.26-1.57-1.27-1.31-2.26,.26-.99,1.27-1.57,2.26-1.31,.99,.26,1.57,1.27,1.31,2.26m-3.21,4.89c-2.96-.79-4.72-3.82-3.94-6.78,.79-2.96,3.82-4.72,6.78-3.94,2.96,.79,4.72,3.82,3.94,6.78m-7.73,7.51c-4.93-1.31-7.87-6.37-6.56-11.3,1.31-4.93,6.37-7.87,11.3-6.56,4.93,1.31,7.87,6.37,6.56,11.3"/><path class="l" d="M727.93,8.99l.65,1.12c.26,.45,.39,.67,.4,.89,.01,.19-.04,.39-.15,.55-.12,.19-.34,.32-.79,.58l-2.24,1.3c-.45,.26-.67,.39-.89,.4-.19,.01-.39-.04-.55-.15-.19-.12-.32-.34-.58-.79l-.65-1.12m7.84,16.82l7.67-4.45c.9-.52,1.34-.78,1.58-1.15,.21-.33,.31-.71,.29-1.1-.02-.44-.28-.89-.8-1.79l-6.31-10.87c-.52-.9-.78-1.34-1.15-1.58-.33-.21-.71-.31-1.1-.29-.44,.02-.89,.28-1.79,.8l-7.67,4.45c-.9,.52-1.34,.78-1.58,1.15-.21,.33-.31,.71-.29,1.1,.02,.44,.28,.89,.8,1.79l6.31,10.87c.52,.9,.78,1.34,1.15,1.58,.33,.21,.71,.31,1.1,.29,.44-.02,.89-.28,1.79-.8Z"/><g><path class="l" d="M17.7,77.58c-.29-.29-.65-.51-1.04-.62-.4-.11-.81-.12-1.21-.01-1.43,.42-6.43,3.32-6.43,3.32,0,0-5,2.9-6.05,3.96-.29,.3-.49,.66-.59,1.06-.1,.4-.09,.82,.02,1.21,.51,1.4,1.14,2.75,1.9,4.04,.75,1.3,1.61,2.53,2.58,3.68,.29,.28,.65,.48,1.03,.58,.39,.1,.8,.1,1.19,0,1.44-.39,6.44-3.29,6.44-3.29,0,0,5-2.9,6.05-3.96,.29-.3,.49-.66,.59-1.06,.1-.4,.09-.82-.02-1.21-.5-1.39-1.13-2.73-1.88-4.01-.75-1.3-1.61-2.53-2.58-3.68Z"/><path class="l" d="M9.29,84.89c-.22-.38-.33-.57-.31-.72,.02-.13,.09-.25,.2-.33,.13-.09,.35-.08,.79-.06l4.33,.2c.38,.02,.57,.03,.69,.11,.1,.08,.16,.19,.18,.31,.02,.14-.07,.31-.24,.65l-1.97,3.86c-.2,.39-.3,.59-.44,.66-.12,.06-.26,.06-.38,.01-.14-.06-.25-.25-.47-.63l-2.35-4.05Z"/></g><path class="l" d="M700.99,28.55c2.41-.2,4.84,.97,6.13,3.2m-5.69,9.72c-2.19-.04-4.31-1.19-5.5-3.22m13.59-7.89c2.56,4.41,1.06,10.07-3.35,12.63s-10.07,1.06-12.63-3.35-1.06-10.07,3.35-12.63,10.07-1.06,12.63,3.35Zm-5.59,3.25c.77,1.32,.32,3.02-1.01,3.79s-3.02,.32-3.79-1.01-.32-3.02,1.01-3.79,3.02-.32,3.79,1.01Z"/><path class="l" d="M79.53,53.25l-2.78-4.8c-2.31-3.97-7.4-5.32-11.37-3.02s-5.32,7.4-3.02,11.37l2.78,4.8m3.39,1.24c-1.1,.64-2.52,.27-3.16-.84l-.93-1.6c-.64-1.1-.27-2.52,.84-3.16s2.52-.27,3.16,.84l.93,1.6c.64,1.1,.27,2.52-.84,3.16Zm10.39-6.03c-1.1,.64-2.52,.27-3.16-.84l-.93-1.6c-.64-1.1-.27-2.52,.84-3.16s2.52-.27,3.16,.84l.93,1.6c.64,1.1,.27,2.52-.84,3.16Z"/><path class="l" d="M667.55,59l-4.08-7.03c-.52-.9-.78-1.34-.8-1.79-.02-.39,.08-.78,.29-1.1,.24-.37,.69-.63,1.58-1.15l9.27-5.38c.9-.52,1.34-.78,1.79-.8,.39-.02,.78,.08,1.1,.29,.37,.24,.63,.69,1.15,1.58l4.08,7.03-4.27,2.48c-.2,.11-.29,.17-.37,.25-.07,.07-.13,.14-.18,.23-.05,.1-.08,.21-.14,.42l-.02,.08c-.06,.22-.09,.33-.14,.42-.05,.09-.11,.16-.18,.23-.08,.08-.18,.13-.37,.25l-2.14,1.24c-.2,.11-.29,.17-.4,.2-.09,.03-.19,.04-.29,.04-.11,0-.22-.03-.44-.09l-.08-.02c-.22-.06-.33-.09-.44-.09-.1,0-.19,.01-.29,.04-.1,.03-.2,.09-.4,.2l-4.27,2.48Zm0,0c-.44,.26-.59,.82-.34,1.26l.15,.27c.29,.5,.43,.74,.6,.91,.47,.47,1.15,.65,1.79,.47,.23-.06,.48-.21,.98-.5l11.72-6.81c.5-.29,.74-.43,.91-.6,.47-.47,.65-1.15,.47-1.79-.06-.23-.21-.48-.5-.98-.14-.25-.22-.37-.3-.46-.23-.23-.57-.32-.89-.24-.12,.03-.24,.1-.49,.25l-.53,.31"/><path class="l" d="M127.82,28.43l6.39-3.71m-5.05-1.34l1.86,3.2m-6.01-.78l8.31-4.83c1.34-.78,2.01-1.17,2.38-1.73,.32-.49,.47-1.07,.44-1.66-.04-.66-.43-1.34-1.21-2.68l-2.04-3.52c-.78-1.34-1.17-2.01-1.73-2.38-.49-.32-1.07-.47-1.66-.44-.66,.04-1.34,.43-2.68,1.21l-8.31,4.83c-1.34,.78-2.01,1.17-2.38,1.73-.32,.49-.47,1.07-.44,1.66,.04,.66,.43,1.34,1.21,2.68l2.04,3.52c.78,1.34,1.17,2.01,1.73,2.38,.49,.32,1.07,.47,1.66,.44,.66-.04,1.34-.43,2.68-1.21Z"/><path class="l" d="M122.59,160.19l1.86,3.2m2.2-4.49l.93,1.6m.35-7.68l5.57,9.59m-3.36-14.08l8.35,14.39m-1.51-10.88l1.86,3.2"/><path class="l" d="M760.33,130.66l.65,1.12c.26,.45,.39,.67,.4,.89,.01,.19-.04,.39-.15,.55-.12,.19-.34,.32-.79,.58l-2.24,1.3c-.45,.26-.67,.39-.89,.4-.19,.01-.39-.04-.55-.15-.19-.12-.32-.34-.58-.79l-.65-1.12m7.84,16.82l7.67-4.45c.9-.52,1.34-.78,1.58-1.15,.21-.33,.31-.71,.29-1.1-.02-.44-.28-.89-.8-1.79l-6.31-10.87c-.52-.9-.78-1.34-1.15-1.58-.33-.21-.71-.31-1.1-.29-.44,.02-.89,.28-1.79,.8l-7.67,4.45c-.9,.52-1.34,.78-1.58,1.15-.21,.33-.31,.71-.29,1.1,.02,.44,.28,.89,.8,1.79l6.31,10.87c.52,.9,.78,1.34,1.15,1.58,.33,.21,.71,.31,1.1,.29,.44-.02,.89-.28,1.79-.8Z"/><g><path class="l" d="M164.75,132.7c-.29-.29-.65-.51-1.04-.62-.4-.11-.81-.12-1.21-.01-1.43,.42-6.43,3.32-6.43,3.32,0,0-5,2.9-6.05,3.96-.29,.3-.49,.66-.59,1.06-.1,.4-.09,.82,.02,1.21,.51,1.4,1.14,2.75,1.9,4.04,.75,1.3,1.61,2.53,2.58,3.68,.29,.28,.65,.48,1.03,.58,.39,.1,.8,.1,1.19,0,1.44-.39,6.44-3.29,6.44-3.29,0,0,5-2.9,6.05-3.96,.29-.3,.49-.66,.59-1.06,.1-.4,.09-.82-.02-1.21-.5-1.39-1.13-2.73-1.88-4.01-.75-1.3-1.61-2.53-2.58-3.68Z"/><path class="l" d="M156.35,140c-.22-.38-.33-.57-.31-.72,.02-.13,.09-.25,.2-.33,.13-.09,.35-.08,.79-.06l4.33,.2c.38,.02,.57,.03,.69,.11,.1,.08,.16,.19,.18,.31,.02,.14-.07,.31-.24,.65l-1.97,3.86c-.2,.39-.3,.59-.44,.66-.12,.06-.26,.06-.38,.01-.14-.06-.25-.25-.47-.63l-2.35-4.05Z"/></g><path class="l" d="M197.93,125l-2.78-4.8c-2.31-3.97-7.4-5.32-11.37-3.02-3.97,2.31-5.32,7.4-3.02,11.37l2.78,4.8m3.39,1.24c-1.1,.64-2.52,.27-3.16-.84l-.93-1.6c-.64-1.1-.27-2.52,.84-3.16s2.52-.27,3.16,.84l.93,1.6c.64,1.1,.27,2.52-.84,3.16Zm10.39-6.03c-1.1,.64-2.52,.27-3.16-.84l-.93-1.6c-.64-1.1-.27-2.52,.84-3.16s2.52-.27,3.16,.84l.93,1.6c.64,1.1,.27,2.52-.84,3.16Z"/><path class="l" d="M734.94,165.71l6.39-3.71m-5.05-1.34l1.86,3.2m-6.01-.78l8.31-4.83c1.34-.78,2.01-1.17,2.38-1.73,.32-.49,.47-1.07,.44-1.66-.04-.66-.43-1.34-1.21-2.68l-2.04-3.52c-.78-1.34-1.17-2.01-1.73-2.38-.49-.32-1.07-.47-1.66-.44-.66,.04-1.34,.43-2.68,1.21l-8.31,4.83c-1.34,.78-2.01,1.17-2.38,1.73-.32,.49-.47,1.07-.44,1.66,.04,.66,.43,1.34,1.21,2.68l2.04,3.52c.78,1.34,1.17,2.01,1.73,2.38,.49,.32,1.07,.47,1.66,.44,.66-.04,1.34-.43,2.68-1.21Z"/><path class="l" d="M136.62,96.67l.65,1.12c.26,.45,.39,.67,.4,.89,.01,.19-.04,.39-.15,.55-.12,.19-.34,.32-.79,.58l-2.24,1.3c-.45,.26-.67,.39-.89,.4-.19,.01-.39-.04-.55-.15-.19-.12-.32-.34-.58-.79l-.65-1.12m8.64,16.35l6.07-3.53c.9-.52,1.34-.78,1.58-1.15,.21-.33,.31-.71,.29-1.1-.02-.44-.28-.89-.8-1.79l-6.31-10.87c-.52-.9-.78-1.34-1.15-1.58-.33-.21-.71-.31-1.1-.29-.44,.02-.89,.28-1.79,.8l-6.07,3.53c-.9,.52-1.34,.78-1.58,1.15-.21,.33-.31,.71-.29,1.1,.02,.44,.28,.89,.8,1.79l6.31,10.87c.52,.9,.78,1.34,1.15,1.58,.33,.21,.71,.31,1.1,.29,.44-.02,.89-.28,1.79-.8Z"/><path class="l" d="M73.47,141.89l1.86,3.2m2.2-4.49l.93,1.6m.35-7.68l5.57,9.59m-3.36-14.08l8.35,14.39m-1.51-10.88l1.86,3.2"/><path class="l" d="M685.12,141.26c-.99-.26-1.57-1.27-1.31-2.26,.26-.99,1.27-1.57,2.26-1.31,.99,.26,1.57,1.27,1.31,2.26m-3.21,4.89c-2.96-.79-4.72-3.82-3.94-6.78,.79-2.96,3.82-4.72,6.78-3.94,2.96,.79,4.72,3.82,3.94,6.78m-7.73,7.51c-4.93-1.31-7.87-6.37-6.56-11.3,1.31-4.93,6.37-7.87,11.3-6.56,4.93,1.31,7.87,6.37,6.56,11.3"/><path class="l" d="M768.59,79.03l.65,1.12c.26,.45,.39,.67,.4,.89,.01,.19-.04,.39-.15,.55-.12,.19-.34,.32-.79,.58l-2.24,1.3c-.45,.26-.67,.39-.89,.4-.19,.01-.39-.04-.55-.15-.19-.12-.32-.34-.58-.79l-.65-1.12m7.84,16.82l7.67-4.45c.9-.52,1.34-.78,1.58-1.15,.21-.33,.31-.71,.29-1.1-.02-.44-.28-.89-.8-1.79l-6.31-10.87c-.52-.9-.78-1.34-1.15-1.58-.33-.21-.71-.31-1.1-.29-.44,.02-.89,.28-1.79,.8l-7.67,4.45c-.9,.52-1.34,.78-1.58,1.15-.21,.33-.31,.71-.29,1.1,.02,.44,.28,.89,.8,1.79l6.31,10.87c.52,.9,.78,1.34,1.15,1.58,.33,.21,.71,.31,1.1,.29,.44-.02,.89-.28,1.79-.8Z"/><g><path class="l" d="M58.36,147.63c-.29-.29-.65-.51-1.04-.62-.4-.11-.81-.12-1.21-.01-1.43,.42-6.43,3.32-6.43,3.32,0,0-5,2.9-6.05,3.96-.29,.3-.49,.66-.59,1.06-.1,.4-.09,.82,.02,1.21,.51,1.4,1.14,2.75,1.9,4.04,.75,1.3,1.61,2.53,2.58,3.68,.29,.28,.65,.48,1.03,.58,.39,.1,.8,.1,1.19,0,1.44-.39,6.44-3.29,6.44-3.29,0,0,5-2.9,6.05-3.96,.29-.3,.49-.66,.59-1.06,.1-.4,.09-.82-.02-1.21-.5-1.39-1.13-2.73-1.88-4.01-.75-1.3-1.61-2.53-2.58-3.68Z"/><path class="l" d="M49.96,154.93c-.22-.38-.33-.57-.31-.72,.02-.13,.09-.25,.2-.33,.13-.09,.35-.08,.79-.06l4.33,.2c.38,.02,.57,.03,.69,.11,.1,.08,.16,.19,.18,.31,.02,.14-.07,.31-.24,.65l-1.97,3.86c-.2,.39-.3,.59-.44,.66-.12,.06-.26,.06-.38,.01-.14-.06-.25-.25-.47-.63l-2.35-4.05Z"/></g><path class="l" d="M741.66,98.6c2.41-.2,4.84,.97,6.13,3.2m-5.69,9.72c-2.19-.04-4.31-1.19-5.5-3.22m13.59-7.89c2.56,4.41,1.06,10.07-3.35,12.63-4.41,2.56-10.07,1.06-12.63-3.35-2.56-4.41-1.06-10.07,3.35-12.63s10.07-1.06,12.63,3.35Zm-5.59,3.25c.77,1.32,.32,3.02-1.01,3.79s-3.02,.32-3.79-1.01-.32-3.02,1.01-3.79,3.02-.32,3.79,1.01Z"/><path class="l" d="M120.2,123.3l-2.78-4.8c-2.31-3.97-7.4-5.32-11.37-3.02s-5.32,7.4-3.02,11.37l2.78,4.8m3.39,1.24c-1.1,.64-2.52,.27-3.16-.84l-.93-1.6c-.64-1.1-.27-2.52,.84-3.16s2.52-.27,3.16,.84l.93,1.6c.64,1.1,.27,2.52-.84,3.16Zm10.39-6.03c-1.1,.64-2.52,.27-3.16-.84l-.93-1.6c-.64-1.1-.27-2.52,.84-3.16s2.52-.27,3.16,.84l.93,1.6c.64,1.1,.27,2.52-.84,3.16Z"/><path class="l" d="M708.22,129.05l-4.08-7.03c-.52-.9-.78-1.34-.8-1.79-.02-.39,.08-.78,.29-1.1,.24-.37,.69-.63,1.58-1.15l9.27-5.38c.9-.52,1.34-.78,1.79-.8,.39-.02,.78,.08,1.1,.29,.37,.24,.63,.69,1.15,1.58l4.08,7.03-4.27,2.48c-.2,.11-.29,.17-.37,.25-.07,.07-.13,.14-.18,.23-.05,.1-.08,.21-.14,.42l-.02,.08c-.06,.22-.09,.33-.14,.42-.05,.09-.11,.16-.18,.23-.08,.08-.18,.13-.37,.25l-2.14,1.24c-.2,.11-.29,.17-.4,.2-.09,.03-.19,.04-.29,.04-.11,0-.22-.03-.44-.09l-.08-.02c-.22-.06-.33-.09-.44-.09-.1,0-.19,.01-.29,.04-.1,.03-.2,.09-.4,.2l-4.27,2.48Zm0,0c-.44,.26-.59,.82-.34,1.26l.15,.27c.29,.5,.43,.74,.6,.91,.47,.47,1.15,.65,1.79,.47,.23-.06,.48-.21,.98-.5l11.72-6.81c.5-.29,.74-.43,.91-.6,.47-.47,.65-1.15,.47-1.79-.06-.23-.21-.48-.5-.98-.14-.25-.22-.37-.3-.46-.23-.23-.57-.32-.89-.24-.12,.03-.24,.1-.49,.25l-.53,.31"/><path class="l" d="M168.48,98.47l6.39-3.71m-5.05-1.34l1.86,3.2m-6.01-.78l8.31-4.83c1.34-.78,2.01-1.17,2.38-1.73,.32-.49,.47-1.07,.44-1.66-.04-.66-.43-1.34-1.21-2.68l-2.04-3.52c-.78-1.34-1.17-2.01-1.73-2.38-.49-.32-1.07-.47-1.66-.44-.66,.04-1.34,.43-2.68,1.21l-8.31,4.83c-1.34,.78-2.01,1.17-2.38,1.73-.32,.49-.47,1.07-.44,1.66,.04,.66,.43,1.34,1.21,2.68l2.04,3.52c.78,1.34,1.17,2.01,1.73,2.38,.49,.32,1.07,.47,1.66,.44,.66-.04,1.34-.43,2.68-1.21Z"/></g></g><g class="o"><g><g class="u"><path class="t" d="M391.57,70.42c-2.75-3.11-6.52-3.86-8.32-4.22-3.46-.69-6.49-.26-8.62,.29-2.15,.81-6.99,3-10.51,8.13-1.67,2.44-2.54,4.81-3.02,6.59,.78,.24,3.25,1.11,5,3.65,2.15,3.12,1.59,6.45,1.47,7.1,1.26-.55,3.75-1.87,5.43-4.61,1.01-1.64,1.35-3.18,1.52-3.95,.47-2.17,.32-4,.13-5.16,.85-1.04,2.43-2.68,4.89-3.89,1.65-.81,3.17-1.16,4.29-1.33,1.27,.24,3.19,.69,5.43,1.57,2.91,1.15,4.15,2.18,4.68,1.72,.73-.63-.44-3.71-2.38-5.9Z"/><path class="t" d="M372.06,90.59c-.29,.23-.6,.46-.93,.68-1.24,.82-2.45,1.34-3.5,1.67-.08,1.02-.33,2.39-1.01,3.88-.29,.63-.61,1.18-.92,1.65,.72-.72,1.55-1.47,2.49-2.22,1.17-.94,2.3-1.72,3.34-2.36,.09-.54,.17-1.07,.26-1.61,.09-.56,.18-1.13,.26-1.69Z"/><path class="t" d="M363.37,83.94c-2.05-1.74-4.45-1.94-5.44-1.97-2.7,1.95-5.68,4.35-8.73,7.28-3.32,3.19-6.02,6.32-8.18,9.14-.59,2.92,.01,4.28,.69,4.98,1,1.04,2.26,.74,4.1,1.69,1.76,.91,2.84,2.35,3.48,3.44,5.13-3.24,10.25-6.48,15.38-9.72,.77-1.41,1.79-3.83,1.72-6.9-.04-1.71-.11-5.47-3.02-7.94Z"/><path class="t" d="M339.3,99.34c-.13,.41-.69,2.3,.3,4.19,.52,.99,1.25,1.58,1.69,1.88,.32,.09,.8,.22,1.37,.38,2.84,.83,3.31,1.16,3.6,1.42,.35,.31,.85,.89,1.15,1.95-.43-.13-3.89-1.09-7.08,1.15-3.11,2.18-3.44,5.62-3.48,6.09-3.82-2.93-5.27-7.74-3.73-11.62,1.57-3.94,5.56-5.26,6.17-5.45Z"/><path class="t" d="M338.26,118.66c-.03-.3-.37-4.11,2.67-6.64,2.84-2.37,6.23-1.63,6.61-1.55,.83,.29,1.66,.59,2.49,.88,.15-.17,.34-.43,.5-.77,.45-.94,.32-1.79,.65-1.88,.07-.02,.17-.01,.33,.12,.28,.96,.53,2.17,.58,3.59,.02,.7,0,1.34-.06,1.92,.39,.39,.81,.86,1.22,1.42,.54,.73,.93,1.44,1.22,2.04,.26-.45,.36-.84,.4-1.1,.1-.68-.08-1.19,.26-1.6,.11-.14,.24-.21,.32-.25,.49,.9,1.1,2.32,1.24,4.14,.05,.71,.03,1.35-.04,1.9,.41,.69,.83,1.44,1.22,2.27,.92,1.92,1.5,3.72,1.87,5.29-1.34,.47-3.11,1.27-4.94,2.62-1.21,.9-2.16,1.83-2.89,2.64-2.69-1.44-6.89-4.19-10.35-9.04-1.53-2.14-2.58-4.23-3.3-6.01Z"/><g><path class="t" d="M404.29,94.23c-1.21-1.39-3.03-3.14-5.6-4.6-5.41-3.07-10.72-2.91-13.01-2.7-.72,.15-1.54,.36-2.41,.65-.43,2.94-.87,5.89-1.3,8.83,.8-.15,1.71-.26,2.72-.26,2.74,0,4.88,.79,6.1,1.35,.34,1.12,1.01,2.84,2.38,4.58,.49,.62,1.47,1.85,3.09,2.88,2.72,1.73,5.53,1.83,6.91,1.77-.4-.53-2.35-3.28-1.79-7.03,.46-3.05,2.3-4.91,2.9-5.47Z"/><path class="t" d="M401.82,110.37h0s1.75,.28,3.17,.61c.67,.15,1.61,.4,2.73,.79-.48-.28-1.01-.64-1.55-1.08-1.26-1.04-2.08-2.17-2.6-3.05-.31,.04-.64,.08-.98,.1-.43,.03-.83,.04-1.2,.03,.26,1.58,.43,2.6,.43,2.6Z"/><path class="t" d="M403.45,97.68c1.08-2.46,3.15-3.7,4.03-4.15,3.28,.57,7.01,1.43,11.04,2.72,4.38,1.41,8.18,3.05,11.36,4.64,.19,.2,1.72,1.9,1.26,3.95-.47,2.15-2.74,2.98-3.53,3.27-1.75,.64-3.31,.36-3.99,.2-.81,.45-1.21,.97-1.44,1.37-.6,1.09-.59,2.68-.59,2.68h0s-5.01-.3-12.81-.76c-1.31-.93-3.29-2.66-4.57-5.45-.72-1.55-2.29-4.97-.76-8.46Z"/><path class="t" d="M433.02,101.48c.17,.4,.87,2.24,.02,4.2-.44,1.03-1.13,1.67-1.54,2.01-.31,.11-.78,.28-1.33,.49-2.77,1.04-3.21,1.41-3.48,1.69-.32,.34-.78,.95-1,2.04,.42-.16,3.79-1.38,7.15,.6,3.26,1.93,3.86,5.34,3.94,5.81,3.58-3.21,4.66-8.12,2.82-11.87-1.86-3.8-5.95-4.82-6.57-4.96Z"/><path class="t" d="M434.84,121.89c.08-.29,1.05-3.99-1.52-7-2.4-2.81-5.87-2.65-6.26-2.63-.87,.15-1.73,.31-2.6,.46-.12-.19-.26-.48-.37-.84-.28-1-.01-1.82-.33-1.96-.06-.03-.17-.04-.34,.06-.44,.9-.89,2.06-1.17,3.44-.14,.68-.22,1.32-.26,1.9-.45,.32-.94,.71-1.44,1.2-.65,.63-1.16,1.26-1.54,1.81-.19-.49-.22-.89-.21-1.15,.01-.69,.27-1.16,0-1.62-.09-.15-.2-.25-.27-.3-.63,.8-1.47,2.1-1.91,3.87-.17,.69-.25,1.32-.28,1.88-.53,.6-1.06,1.27-1.58,2.03-1.48,2.16-2.34,4.28-2.85,5.99,1.12,.49,2.57,1.25,4.07,2.46,1.27,1.02,2.21,2.07,2.88,2.94,2.89-.97,7.49-2.98,11.72-7.18,1.87-1.86,3.25-3.74,4.26-5.37Z"/></g><path class="t" d="M385.2,123.77c-.17-.22-3.03-4.04-4.45-3.4-.14,.06-.28,.17-.4,.36,.02,.17,.15,1.2-.58,2.09-.6,.73-1.39,.9-1.61,.94-.33-.06-.83-.1-1.39,.07-1.06,.32-1.35,1.12-2.2,1.95-.1,.1-1.79,1.7-4.05,1.77-.55,.02-1.71-.04-3.07-.87l-1.83-1.31c-.39-.32-.81-.55-1.17-.44-.55,.17-.6,1.02-1.12,2.11-.29,.62-.72,1.29-1.37,1.95-1.39,.35-3.45,1.04-5.64,2.49-2.13,1.41-3.55,3-4.41,4.12-1.29,.07-2.31-.04-2.96-.14-2-.31-3.58-1.01-4.01-.43-.08,.11-.1,.24-.1,.31,.23,1.1,.45,2.2,.68,3.3-.03,.38-.21,2.23-1.81,3.62-1.43,1.25-3.17,1.24-4.31,1.23-1.61,0-2.88-.45-3.62-.78-.32,.21-.8,.56-1.24,1.09-.84,1.01-.97,1.91-1.36,2.83-.56,1.33-1.44,2.1-2.49,3.01-2.03,1.78-4.3,2.42-5.66,2.68-.5,.04-1.24,.09-2.14,.11-3.8,.06-5.1-.63-6.97-.3-1.19,.21-2.82,.87-4.57,2.91h73.84"/><path class="t" d="M308.48,110.55c-.75,.6-1.18,1.01-1.59,1.47-.77,.87-1.31,1.47-1.88,2.38-.2,.32-.41,.69-.79,1.19-.49,.63-.95,1.1-1.27,1.39-.55,.53-1.65,1.74-2.18,3.65-.38,1.37-.3,2.54-.2,3.25,.78-.53,2.13-1.28,3.96-1.66,1.64-.34,3.03-.25,3.92-.11,0-.05,.01-.09,.02-.14v-11.41Z"/><path class="t" d="M301.81,125.31c0,.2,.06,.91,1.9,1.78,3.61,2.34,4.26,3.42,4.06,3.96-.11,.31-.46,.37-.48,.67-.04,.75,2.12,1.36,3.58,1.95,1.4,.56,3.34,1.57,5.45,3.5,.41,.27,1.57,.97,3.21,.95,1.68-.02,2.84-.79,3.23-1.08,.15-.13,1.07-.94,1.12-2.3,.05-1.33-.75-2.18-.89-2.33-.71-.48-1.83-1.2-3.28-1.94-1.7-.86-2.61-1.13-4.25-1.88-1.08-.49-2.65-1.28-4.48-2.45-.16-.42-.87-2.21-2.65-2.84-.74-.26-1.36-.21-2.05-.15-1.81,.16-4.44,1.03-4.47,2.17Z"/><path class="t" d="M317.96,139.4c2.01,.85,4.29,.47,5.77-.96,1.76-1.7,1.52-4.06,1.49-4.35,1.32,.54,3.03,1.4,4.83,2.77,1.82,1.38,3.12,2.83,4,3.96-.42,.6-.97,1.53-1.27,2.76-.24,.96-.15,1.41-.31,2.04-.23,.91-.94,2.09-3.11,3.23-3.11-.73-5.35-1.97-6.74-2.89-1.92-1.27-4.64-3.07-4.73-5.66-.01-.37,.03-.68,.07-.9Z"/><ellipse class="t" cx="370.95" cy="120.3" rx="6.16" ry="4.06" transform="translate(-18.97 126.48) rotate(-18.88)"/><path class="t" d="M385.2,123.77c.17-.22,3.03-4.04,4.45-3.4,.14,.06,.28,.17,.4,.36-.02,.17-.15,1.2,.58,2.09,.6,.73,1.39,.9,1.61,.94,.33-.06,.83-.1,1.39,.07,1.06,.32,1.35,1.12,2.2,1.95,.1,.1,1.79,1.7,4.05,1.77,.55,.02,1.71-.04,3.07-.87l1.83-1.31c.39-.32,.81-.55,1.17-.44,.55,.17,.6,1.02,1.12,2.11,.29,.62,.72,1.29,1.37,1.95,1.39,.35,3.45,1.04,5.64,2.49,2.13,1.41,3.55,3,4.41,4.12,1.29,.07,2.31-.04,2.96-.14,2-.31,3.58-1.01,4.01-.43,.08,.11,.1,.24,.1,.31-.23,1.1-.45,2.2-.68,3.3,.03,.38,.21,2.23,1.81,3.62,1.43,1.25,3.17,1.24,4.31,1.23,1.61,0,2.88-.45,3.62-.78,.32,.21,.8,.56,1.24,1.09,.84,1.01,.97,1.91,1.36,2.83,.56,1.33,1.44,2.1,2.49,3.01,2.03,1.78,4.3,2.42,5.66,2.68,.5,.04,1.24,.09,2.14,.11,3.8,.06,5.1-.63,6.97-.3,1.19,.21,2.82,.87,4.57,2.91h-73.84"/><path class="t" d="M465.85,121.66c-.32-.64-.94-1.64-2.03-2.55-1.52-1.26-3.12-1.62-3.87-1.74-.43-.06-1.08-.18-1.84-.42-.6-.19-.98-.37-1.33-.52-.99-.42-1.77-.6-2.9-.87-1.18-.28-2.36-.38-6.41-.37-1.19,0-2.74,.02-4.57,.06-.13,.17-.28,.42-.26,.71,.1,1.66,5.41,1.74,10.31,4.41,1.6,.87,3.51,2.21,5.42,4.35,.66-.62,1.74-1.49,3.28-2.15,1.72-.74,3.26-.89,4.2-.9Z"/><path class="t" d="M465.3,122.7c.19,.33,.67,1.25,.53,2.46-.08,.73-.36,1.28-.56,1.59-2.84,2.34-3.33,3.42-3.08,3.96,.14,.31,.48,.35,.52,.64,.09,.74-2.02,1.5-3.44,2.18-1.36,.66-3.22,1.79-5.2,3.86-.39,.3-1.5,1.07-3.14,1.16-1.67,.09-2.88-.6-3.3-.86-.16-.12-1.13-.86-1.28-2.22-.14-1.32,.6-2.23,.73-2.39,.67-.53,1.74-1.32,3.14-2.16,1.63-.98,2.53-1.31,4.11-2.16,1.05-.57,2.56-1.45,4.31-2.74,.45-.63,1.61-2.08,3.66-2.85,1.21-.45,2.28-.5,2.98-.48Z"/><path class="t" d="M452.58,139.73c-1.95,.99-4.25,.76-5.82-.57-1.87-1.58-1.79-3.95-1.78-4.24-1.28,.63-2.93,1.6-4.63,3.09-1.72,1.5-2.92,3.03-3.72,4.22,.46,.57,1.07,1.46,1.45,2.67,.3,.95,.24,1.39,.45,2.01,.29,.89,1.08,2.03,3.32,3.01,3.05-.94,5.21-2.33,6.53-3.34,1.83-1.4,4.42-3.38,4.33-5.97-.01-.37-.08-.68-.13-.89Z"/><ellipse class="t" cx="398.78" cy="122.07" rx="2.51" ry="3.81" transform="translate(154.26 459.92) rotate(-71.12)"/><circle class="h" cx="372.59" cy="118.5" r="2.1"/><circle class="h" cx="397.56" cy="121.44" r="1.22"/><path class="t" d="M389.59,101.66c.14,.89,.28,1.78,.42,2.66-.46-.05-1.24-.2-2.02-.71-1.53-.99-1.94-2.6-2.03-2.99,.03-.13,.08-.22,.16-.28,.35-.22,.99,.5,2.03,.94,.53,.23,1.03,.33,1.44,.37Z"/></g><g><path class="j" d="M372.82,70.02c.14,.2,.41,.5,.88,.68,1.59,.59,3.14-1.12,6.22-1.58,3.71-.55,7.26,1.08,7.72,.42,.06-.09,.04-.18,.02-.25-1.34-.63-3.73-1.54-6.89-1.69-1.71-.08-4.46-.2-6.55,1.11-.72,.45-1.16,.95-1.42,1.31Z"/><path class="j" d="M394.67,89.59c-2.09-1.31-4.84-1.19-6.55-1.11-2.08,.09-3.81,.52-5.14,.98-.03,.19-.06,.38-.09,.57-.02,.14-.05,.28-.07,.41,1.48-.26,3.78-.8,6.17-.45,3.09,.45,4.63,2.17,6.22,1.58,.47-.18,.74-.48,.88-.68-.26-.36-.7-.85-1.42-1.31Z"/><path class="j" d="M355.87,90.15c-.14-.8-1.75-1.22-2.52-1.03-.48,.12-1.11,.58-1.11,.58h0s-1.02,.95-2.13,2.08c-1.88,1.91-3.48,3.79-4.84,5.55-.19,.55-.09,1.01,.15,1.12,.04,.02,.16,.06,.36-.02,1.73-2.57,3.49-3.72,4.8-4.29,.64-.28,2.28-.91,4.06-2.34,1.1-.88,1.3-1.31,1.24-1.65Z"/><path class="j" d="M358.68,86.45c-.51-.49-1.33-.6-2.03-.25-.31,.15-.68,.37-1.07,.67-.35,.27-.63,.55-.85,.79-.13,.14-.14,.23-.13,.28,.08,.43,1.56,.16,2.12,.97,.21,.3,.12,.51,.33,.65,.39,.24,1.11-.19,1.7-.64,.64-.77,.57-1.87-.06-2.48Z"/><g><path class="j" d="M410.88,99c-.26-.77,.96-1.9,1.73-2.11,.47-.12,1.25-.02,1.25-.02h.01s1.35,.34,2.86,.81c2.56,.79,4.86,1.68,6.9,2.59,.43,.39,.55,.85,.4,1.06-.03,.04-.11,.13-.33,.15-2.74-1.44-4.84-1.61-6.26-1.5-.69,.06-2.44,.28-4.68-.13-1.39-.25-1.77-.53-1.88-.86Z"/><path class="j" d="M406.65,97.08c.22-.67,.89-1.16,1.67-1.19,.35-.01,.78,0,1.26,.08,.44,.07,.82,.18,1.12,.3,.18,.06,.23,.14,.25,.19,.14,.41-1.3,.88-1.4,1.86-.04,.37,.14,.51,.02,.73-.22,.4-1.06,.36-1.79,.24-.93-.38-1.39-1.37-1.12-2.21Z"/></g><g><path class="j" d="M358.42,145.89c-.1-.45-.86-3.82,.35-4.48,.42-.23,.94-.06,2.1,.41,1.8,.72,2.7,1.08,4.25,1.87,1.31,.66,3.38,1.22,6.62,.65-2.49,.83-4.45,.84-5.79,.67-1.81-.22-3.17-.82-5.08-.33-1.1,.28-1.93,.81-2.45,1.21Z"/><path class="j" d="M368.4,141.24c.03-.46,.28-3.9,1.63-4.19,.47-.1,.91,.22,1.89,1,1.51,1.21,2.27,1.81,3.54,3.01,1.07,1.01,2.88,2.14,6.15,2.53-2.63,.08-4.5-.48-5.74-1.03-1.67-.73-2.8-1.7-4.77-1.78-1.14-.05-2.08,.22-2.7,.46Z"/></g><g><path class="j" d="M412.38,145.89c.1-.45,.86-3.82-.35-4.48-.42-.23-.94-.06-2.1,.41-1.8,.72-2.7,1.08-4.25,1.87-1.31,.66-3.38,1.22-6.62,.65,2.49,.83,4.45,.84,5.79,.67,1.81-.22,3.17-.82,5.08-.33,1.1,.28,1.93,.81,2.45,1.21Z"/><path class="j" d="M402.4,141.24c-.03-.46-.28-3.9-1.63-4.19-.47-.1-.91,.22-1.89,1-1.51,1.21-2.27,1.81-3.54,3.01-1.07,1.01-2.88,2.14-6.15,2.53,2.63,.08,4.5-.48,5.74-1.03,1.67-.73,2.8-1.7,4.77-1.78,1.14-.05,2.08,.22,2.7,.46Z"/></g></g></g></g></g></g></g></svg>