<?xml version="1.0" encoding="UTF-8"?><svg xmlns="http://www.w3.org/2000/svg" viewBox="0 0 63.87 61.63"><defs><style>.d{fill:none;stroke:#d38171;stroke-linecap:round;stroke-linejoin:round;stroke-width:3px;}.e{fill:#d38171;}</style></defs><g id="a"/><g id="b"><g id="c"><g><rect class="d" x="16.69" y="17.46" width="30.49" height="30.49" rx="15.24" ry="15.24"/><g><g><path class="d" d="M17.18,38.77c-1.03,.34-3.49,1.31-5.52,3.8-1.82,2.25-2.34,4.57-2.51,5.64"/><path class="d" d="M19.64,41.89c-.81,.42-3.14,1.77-4.29,4.57-1.3,3.17-.58,6.96,1.82,9.82"/><path class="d" d="M21.71,45.02c-.45,.62-1.18,1.8-1.35,3.4-.29,2.79,1.35,4.93,1.9,5.65,.97,1.28,1.45,1.23,3.16,3.05,1.12,1.2,1.92,2.28,2.41,3.01"/></g><g><path class="d" d="M46.7,38.77c1.03,.34,3.49,1.31,5.52,3.8,1.82,2.25,2.34,4.57,2.51,5.64"/><path class="d" d="M44.24,41.89c.81,.42,3.14,1.77,4.29,4.57,1.3,3.17,.58,6.96-1.82,9.82"/><path class="d" d="M42.17,45.02c.45,.62,1.18,1.8,1.35,3.4,.29,2.79-1.35,4.93-1.9,5.65-.97,1.28-1.45,1.23-3.16,3.05-1.12,1.2-1.92,2.28-2.41,3.01"/></g></g><g><g><path class="d" d="M3.07,10.59C3.99,6.43,7.03,3.09,11.01,1.93c5.14-1.5,9.32,1.38,9.84,1.76-3.24-.08-4.76,.8-5.51,1.78-.73,.96-.56,1.79-1.24,3.03-.96,1.76-2.74,2.75-4.47,3.33l7.78-.84c-.08,.76-.4,2.64-1.88,4.33-2.34,2.65-5.67,2.64-6.19,2.63"/><path class="d" d="M16.53,32.7c-.75-.3-4.41-1.87-6.27-6.05-1.84-4.14-.59-7.86-.31-8.63-2.55-.85-5.11-1.71-7.66-2.56-.48,1.49-1.06,4-.64,7.06,.8,5.73,4.58,9.19,5.71,10.15"/><path class="d" d="M11.7,29.38l-4.35,3.28c.89,.82,2.38,2,4.5,2.88,2.1,.87,3.97,1.1,5.17,1.15-.09-.42-.18-.87-.25-1.33-.15-.96-.22-1.86-.24-2.67"/></g><g><path class="d" d="M60.8,10.59c-.92-4.17-3.96-7.5-7.94-8.66-5.14-1.5-9.32,1.38-9.84,1.76,3.24-.08,4.76,.8,5.51,1.78,.73,.96,.56,1.79,1.24,3.03,.96,1.76,2.74,2.75,4.47,3.33l-7.78-.84c.08,.76,.4,2.64,1.88,4.33,2.34,2.65,5.67,2.64,6.19,2.63"/><path class="d" d="M47.34,32.7c.75-.3,4.41-1.87,6.27-6.05,1.84-4.14,.59-7.86,.31-8.63,2.55-.85,5.11-1.71,7.66-2.56,.48,1.49,1.06,4,.64,7.06-.8,5.73-4.58,9.19-5.71,10.15"/><path class="d" d="M52.17,29.38l4.35,3.28c-.89,.82-2.38,2-4.5,2.88-2.1,.87-3.97,1.1-5.17,1.15,.09-.42,.18-.87,.25-1.33,.15-.96,.22-1.86,.24-2.67"/></g></g><g><circle class="d" cx="23.01" cy="17.95" r="1.28"/><circle class="d" cx="40.87" cy="17.95" r="1.28"/></g><path class="e" d="M31.93,27.26c-2.04-2.36-5.45-2.99-8-.83-2.56,2.16-2.92,5.77-.91,8.32,1.24,1.58,4.37,4.47,6.57,6.44,.81,.72,1.21,1.08,1.69,1.23,.42,.13,.89,.13,1.31,0,.48-.15,.89-.51,1.69-1.23,2.2-1.97,5.32-4.86,6.56-6.44,2.01-2.55,1.69-6.19-.91-8.32-2.6-2.14-5.96-1.52-8,.83Z"/></g></g></g></svg>