<?xml version="1.0" encoding="UTF-8"?><svg xmlns="http://www.w3.org/2000/svg" viewBox="0 0 156.01 79.6"><defs><style>.d{fill:#ffc950;}.e{fill:#53009b;}</style></defs><g id="a"/><g id="b"><g id="c"><g><g><path class="e" d="M0,31.21v-5.42H5.42v5.42H0Zm0,5.29v-5.29H5.42v5.29H0Zm0,5.42v-5.42H5.42v5.42H0Zm0,5.42v-5.42H5.42v5.42H0Zm0,5.39v-5.39H5.42v5.39H0Zm0,5.42v-5.42H5.42v5.42H0Zm0,5.39v-5.39H5.42v5.39H0Zm0,5.42v-5.42H5.42v5.42H0Zm0,5.29v-5.29H5.42v5.29H0ZM5.42,31.21v-5.42h5.39v5.42H5.42Zm0,43.04v-5.29h5.39v5.29H5.42Zm5.39,0v5.34H5.42v-5.34h5.39Zm0-43.04v-5.42h5.42v5.42h-5.42Zm0,43.04v-5.29h5.42v5.29h-5.42Zm5.42,0v5.34h-5.42v-5.34h5.42Zm0-43.04v-5.42h5.29v5.42h-5.29Zm0,5.29v-5.29h5.29v5.29h-5.29Zm0,16.24v-5.39h5.29v5.39h-5.29Zm0,5.42v-5.42h5.29v5.42h-5.29Zm0,5.39v-5.39h5.29v5.39h-5.29Zm0,5.42v-5.42h5.29v5.42h-5.29Zm0,5.29v-5.29h5.29v5.29h-5.29Zm5.29,0v5.34h-5.29v-5.34h5.29Zm0-37.76v-5.29h5.42v5.29h-5.42Zm0,5.42v-5.42h5.42v5.42h-5.42Zm0,16.24v-5.42h5.42v5.42h-5.42Zm0,5.39v-5.39h5.42v5.39h-5.42Zm0,5.42v-5.42h5.42v5.42h-5.42Zm0,5.29v-5.29h5.42v5.29h-5.42Zm5.42,0v5.34h-5.42v-5.34h5.42Zm0-43.04v-5.42h5.42v5.42h-5.42Zm0,5.29v-5.29h5.42v5.29h-5.42Zm0,16.24v-5.39h5.42v5.39h-5.42Zm0,5.42v-5.42h5.42v5.42h-5.42Zm0,5.39v-5.39h5.42v5.39h-5.42Zm0,5.42v-5.42h5.42v5.42h-5.42Zm0,5.29v-5.29h5.42v5.29h-5.42Zm5.42-43.04v-5.42h5.39v5.42h-5.39Zm0,43.04v-5.29h5.39v5.29h-5.39Zm5.39,0v5.34h-5.39v-5.34h5.39Zm0-43.04v-5.42h5.42v5.42h-5.42Zm0,43.04v-5.29h5.42v5.29h-5.42Zm5.42,0v5.34h-5.42v-5.34h5.42Zm0-43.04v-5.42h5.39v5.42h-5.39Zm0,5.29v-5.29h5.39v5.29h-5.39Zm0,5.42v-5.42h5.39v5.42h-5.39Zm0,5.42v-5.42h5.39v5.42h-5.39Zm0,5.39v-5.39h5.39v5.39h-5.39Zm0,5.42v-5.42h5.39v5.42h-5.39Zm0,5.39v-5.39h5.39v5.39h-5.39Zm0,5.42v-5.42h5.39v5.42h-5.39Zm0,5.29v-5.29h5.39v5.29h-5.39Zm5.39,0v5.34h-5.39v-5.34h5.39Zm0-37.76v-5.29h5.31v5.29h-5.31Zm0,5.42v-5.42h5.31v5.42h-5.31Zm0,5.42v-5.42h5.31v5.42h-5.31Zm0,5.39v-5.39h5.31v5.39h-5.31Zm0,5.42v-5.42h5.31v5.42h-5.31Zm0,5.39v-5.39h5.31v5.39h-5.31Zm0,5.42v-5.42h5.31v5.42h-5.31Zm0,5.29v-5.29h5.31v5.29h-5.31Zm5.31,0v5.34h-5.31v-5.34h5.31Z"/><path class="e" d="M51.06,31.21v-5.42h5.42v5.42h-5.42Zm0,5.29v-5.29h5.42v5.29h-5.42Zm0,5.42v-5.42h5.42v5.42h-5.42Zm0,5.42v-5.42h5.42v5.42h-5.42Zm0,5.39v-5.39h5.42v5.39h-5.42Zm0,5.42v-5.42h5.42v5.42h-5.42Zm5.42-26.94v-5.42h5.39v5.42h-5.39Zm0,26.94v-5.42h5.39v5.42h-5.39Zm0,5.39v-5.39h5.39v5.39h-5.39Zm5.39-32.34v-5.42h5.42v5.42h-5.42Zm0,32.34v-5.39h5.42v5.39h-5.42Zm0,5.42v-5.42h5.42v5.42h-5.42Zm5.42-37.76v-5.42h5.29v5.42h-5.29Zm0,5.29v-5.29h5.29v5.29h-5.29Zm0,5.42v-5.42h5.29v5.42h-5.29Zm0,5.42v-5.42h5.29v5.42h-5.29Zm0,5.39v-5.39h5.29v5.39h-5.29Zm0,16.24v-5.42h5.29v5.42h-5.29Zm0,5.29v-5.29h5.29v5.29h-5.29Zm5.29-37.76v-5.29h5.42v5.29h-5.42Zm0,5.42v-5.42h5.42v5.42h-5.42Zm0,5.42v-5.42h5.42v5.42h-5.42Zm0,5.39v-5.39h5.42v5.39h-5.42Zm0,5.42v-5.42h5.42v5.42h-5.42Zm0,16.1v-5.29h5.42v5.29h-5.42Zm5.42,0v5.34h-5.42v-5.34h5.42Zm0-43.04v-5.42h5.42v5.42h-5.42Zm0,5.29v-5.29h5.42v5.29h-5.42Zm0,5.42v-5.42h5.42v5.42h-5.42Zm0,5.42v-5.42h5.42v5.42h-5.42Zm0,5.39v-5.39h5.42v5.39h-5.42Zm0,16.24v-5.42h5.42v5.42h-5.42Zm0,5.29v-5.29h5.42v5.29h-5.42Zm5.42,0v5.34h-5.42v-5.34h5.42Zm0-43.04v-5.42h5.39v5.42h-5.39Zm0,32.34v-5.39h5.39v5.39h-5.39Zm0,5.42v-5.42h5.39v5.42h-5.39Zm0,5.29v-5.29h5.39v5.29h-5.39Zm5.39,0v5.34h-5.39v-5.34h5.39Zm0-43.04v-5.42h5.42v5.42h-5.42Zm0,26.94v-5.42h5.42v5.42h-5.42Zm0,5.39v-5.39h5.42v5.39h-5.42Zm0,5.42v-5.42h5.42v5.42h-5.42Zm0,5.29v-5.29h5.42v5.29h-5.42Zm5.42-43.04v-5.42h5.39v5.42h-5.39Zm0,5.29v-5.29h5.39v5.29h-5.39Zm0,5.42v-5.42h5.39v5.42h-5.39Zm0,5.42v-5.42h5.39v5.42h-5.39Zm0,5.39v-5.39h5.39v5.39h-5.39Zm0,5.42v-5.42h5.39v5.42h-5.39Zm0,5.39v-5.39h5.39v5.39h-5.39Zm0,5.42v-5.42h5.39v5.42h-5.39Zm5.39-32.47v-5.29h5.31v5.29h-5.31Zm0,5.42v-5.42h5.31v5.42h-5.31Zm0,5.42v-5.42h5.31v5.42h-5.31Zm0,5.39v-5.39h5.31v5.39h-5.31Zm0,5.42v-5.42h5.31v5.42h-5.31Zm0,5.39v-5.39h5.31v5.39h-5.31Z"/><path class="e" d="M102.12,31.21v-5.42h5.42v5.42h-5.42Zm0,5.29v-5.29h5.42v5.29h-5.42Zm0,5.42v-5.42h5.42v5.42h-5.42Zm0,5.42v-5.42h5.42v5.42h-5.42Zm0,5.39v-5.39h5.42v5.39h-5.42Zm0,5.42v-5.42h5.42v5.42h-5.42Zm0,5.39v-5.39h5.42v5.39h-5.42Zm0,5.42v-5.42h5.42v5.42h-5.42Zm0,5.29v-5.29h5.42v5.29h-5.42Zm5.42-43.04v-5.42h5.39v5.42h-5.39Zm0,43.04v-5.29h5.39v5.29h-5.39Zm5.39,0v5.34h-5.39v-5.34h5.39Zm0-43.04v-5.42h5.42v5.42h-5.42Zm0,43.04v-5.29h5.42v5.29h-5.42Zm5.42,0v5.34h-5.42v-5.34h5.42Zm0-43.04v-5.42h5.29v5.42h-5.29Zm0,10.71v-5.42h5.29v5.42h-5.29Zm0,5.42v-5.42h5.29v5.42h-5.29Zm0,5.39v-5.39h5.29v5.39h-5.29Zm0,10.82v-5.39h5.29v5.39h-5.29Zm0,5.42v-5.42h5.29v5.42h-5.29Zm0,5.29v-5.29h5.29v5.29h-5.29Zm5.29,0v5.34h-5.29v-5.34h5.29Zm0-43.04v-5.42h5.42v5.42h-5.42Zm0,10.71v-5.42h5.42v5.42h-5.42Zm0,5.42v-5.42h5.42v5.42h-5.42Zm0,5.39v-5.39h5.42v5.39h-5.42Zm0,10.82v-5.39h5.42v5.39h-5.42Zm0,5.42v-5.42h5.42v5.42h-5.42Zm0,5.29v-5.29h5.42v5.29h-5.42Zm5.42,0v5.34h-5.42v-5.34h5.42Zm0-43.04v-5.42h5.42v5.42h-5.42Zm0,10.71v-5.42h5.42v5.42h-5.42Zm0,5.42v-5.42h5.42v5.42h-5.42Zm0,5.39v-5.39h5.42v5.39h-5.42Zm0,10.82v-5.39h5.42v5.39h-5.42Zm0,5.42v-5.42h5.42v5.42h-5.42Zm5.42-37.76v-5.42h5.39v5.42h-5.39Zm0,32.34v-5.39h5.39v5.39h-5.39Zm0,5.42v-5.42h5.39v5.42h-5.39Zm5.39-37.76v-5.42h5.42v5.42h-5.42Zm0,5.29v-5.29h5.42v5.29h-5.42Zm0,21.66v-5.42h5.42v5.42h-5.42Zm0,5.39v-5.39h5.42v5.39h-5.42Zm0,5.42v-5.42h5.42v5.42h-5.42Zm5.42-32.47v-5.29h5.39v5.29h-5.39Zm0,5.42v-5.42h5.39v5.42h-5.39Zm0,5.42v-5.42h5.39v5.42h-5.39Zm0,5.39v-5.39h5.39v5.39h-5.39Zm0,5.42v-5.42h5.39v5.42h-5.39Zm0,5.39v-5.39h5.39v5.39h-5.39Zm0,5.42v-5.42h5.39v5.42h-5.39Zm5.39-27.05v-5.42h5.31v5.42h-5.31Zm0,5.42v-5.42h5.31v5.42h-5.31Zm0,5.39v-5.39h5.31v5.39h-5.31Zm0,5.42v-5.42h5.31v5.42h-5.31Zm0,5.39v-5.39h5.31v5.39h-5.31Z"/></g><g><path class="d" d="M80.74,2.38h-4.27V15.46h-4.36V2.47h-4.39V.27h13.02V2.38Z"/><path class="d" d="M107.7,15.34h-15.37V0h15.37V2.13h-10.95V6.5h6.56v2.26h-6.56v4.39h10.95v2.2Z"/><path class="d" d="M130.85,15.46h-4.36v-4.33h-6.47v4.33h-4.36V4.64h2.07V2.47h2.23V.27h6.53V2.35h2.2v2.17h2.17V15.46Zm-4.36-6.53V4.51h-2.17V2.47h-2.23v2.17h-2.07v4.3h6.47Z"/><path class="d" d="M154.27,15.46h-4.3v-6.5h-2.17v2.13h-2.2v-2.13h-2.1v6.5h-4.42V.27h4.3V2.35h2.23v2.23h2.07V2.44h2.23V.27h4.36V15.46Z"/></g></g></g></g></svg>